<?xml version="1.0" encoding="UTF-8" standalone="no"?>
<!DOCTYPE svg PUBLIC "-//W3C//DTD SVG 1.1//EN"
 "http://www.w3.org/Graphics/SVG/1.1/DTD/svg11.dtd">
<!-- Generated by graphviz version 2.47.3 (20210619.1520)
 -->
<!-- Title: dependencies Pages: 1 -->
<svg width="798pt" height="247pt"
 viewBox="0.00 0.00 798.00 246.80" xmlns="http://www.w3.org/2000/svg" xmlns:xlink="http://www.w3.org/1999/xlink">
<g id="graph0" class="graph" transform="scale(1 1) rotate(0) translate(4 242.8)">
<title>dependencies</title>
<polygon fill="white" stroke="transparent" points="-4,4 -4,-242.8 794,-242.8 794,4 -4,4"/>
<text text-anchor="middle" x="395" y="-8.2" font-family="sans-serif" font-size="14.00">dependencies</text>
<g id="clust1" class="cluster">
<title>cluster_DynamicViewsModule</title>
<polygon fill="none" stroke="black" stroke-dasharray="1,5" points="8,-32.8 8,-230.8 782,-230.8 782,-32.8 8,-32.8"/>
</g>
<g id="clust2" class="cluster">
<title>cluster_DynamicViewsModule_declarations</title>
<polygon fill="none" stroke="black" points="408,-40.8 408,-92.8 774,-92.8 774,-40.8 408,-40.8"/>
</g>
<g id="clust7" class="cluster">
<title>cluster_DynamicViewsModule_exports</title>
<polygon fill="none" stroke="black" points="213,-170.8 213,-222.8 569,-222.8 569,-170.8 213,-170.8"/>
</g>
<g id="clust6" class="cluster">
<title>cluster_DynamicViewsModule_imports</title>
<polygon fill="none" stroke="black" points="16,-40.8 16,-92.8 400,-92.8 400,-40.8 16,-40.8"/>
</g>
<!-- ConditionPipe -->
<g id="node1" class="node">
<title>ConditionPipe</title>
<polygon fill="#ffffb3" stroke="black" points="766.4,-84.8 669.6,-84.8 669.6,-48.8 766.4,-48.8 766.4,-84.8"/>
<text text-anchor="middle" x="718" y="-62.6" font-family="Times,serif" font-size="14.00">ConditionPipe</text>
</g>
<!-- DynamicViewsModule -->
<g id="node4" class="node">
<title>DynamicViewsModule</title>
<polygon fill="#8dd3c7" stroke="black" points="471.13,-149.8 468.13,-153.8 447.13,-153.8 444.13,-149.8 324.87,-149.8 324.87,-113.8 471.13,-113.8 471.13,-149.8"/>
<text text-anchor="middle" x="398" y="-127.6" font-family="Times,serif" font-size="14.00">DynamicViewsModule</text>
</g>
<!-- ConditionPipe&#45;&gt;DynamicViewsModule -->
<g id="edge1" class="edge">
<title>ConditionPipe&#45;&gt;DynamicViewsModule</title>
<path fill="none" stroke="black" d="M718,-85.08C718,-106.12 718,-137.8 718,-137.8 718,-137.8 481.41,-137.8 481.41,-137.8"/>
<polygon fill="black" stroke="black" points="481.41,-134.3 471.41,-137.8 481.41,-141.3 481.41,-134.3"/>
</g>
<!-- ItemComponent -->
<g id="node2" class="node">
<title>ItemComponent</title>
<polygon fill="#ffffb3" stroke="black" points="651.49,-84.8 544.51,-84.8 544.51,-48.8 651.49,-48.8 651.49,-84.8"/>
<text text-anchor="middle" x="598" y="-62.6" font-family="Times,serif" font-size="14.00">ItemComponent</text>
</g>
<!-- ItemComponent&#45;&gt;DynamicViewsModule -->
<g id="edge2" class="edge">
<title>ItemComponent&#45;&gt;DynamicViewsModule</title>
<path fill="none" stroke="black" d="M552.85,-84.82C552.85,-102.17 552.85,-125.8 552.85,-125.8 552.85,-125.8 481.34,-125.8 481.34,-125.8"/>
<polygon fill="black" stroke="black" points="481.34,-122.3 471.34,-125.8 481.34,-129.3 481.34,-122.3"/>
</g>
<!-- ZoneComponent -->
<g id="node3" class="node">
<title>ZoneComponent</title>
<polygon fill="#ffffb3" stroke="black" points="526.1,-84.8 415.9,-84.8 415.9,-48.8 526.1,-48.8 526.1,-84.8"/>
<text text-anchor="middle" x="471" y="-62.6" font-family="Times,serif" font-size="14.00">ZoneComponent</text>
</g>
<!-- ZoneComponent&#45;&gt;DynamicViewsModule -->
<g id="edge3" class="edge">
<title>ZoneComponent&#45;&gt;DynamicViewsModule</title>
<path fill="none" stroke="black" d="M443.63,-84.91C443.63,-84.91 443.63,-103.79 443.63,-103.79"/>
<polygon fill="black" stroke="black" points="440.13,-103.79 443.63,-113.79 447.13,-103.79 440.13,-103.79"/>
</g>
<!-- ConditionPipe  -->
<g id="node8" class="node">
<title>ConditionPipe </title>
<polygon fill="#fb8072" stroke="black" points="561.4,-214.8 460.6,-214.8 460.6,-178.8 561.4,-178.8 561.4,-214.8"/>
<text text-anchor="middle" x="511" y="-192.6" font-family="Times,serif" font-size="14.00">ConditionPipe </text>
</g>
<!-- DynamicViewsModule&#45;&gt;ConditionPipe  -->
<g id="edge7" class="edge">
<title>DynamicViewsModule&#45;&gt;ConditionPipe </title>
<path fill="none" stroke="black" stroke-dasharray="5,2" d="M466.06,-149.91C466.06,-149.91 466.06,-168.79 466.06,-168.79"/>
<polygon fill="black" stroke="black" points="462.56,-168.79 466.06,-178.79 469.56,-168.79 462.56,-168.79"/>
</g>
<!-- UtilsModule  -->
<g id="node9" class="node">
<title>UtilsModule </title>
<polygon fill="#fb8072" stroke="black" points="443.27,-214.8 352.73,-214.8 352.73,-178.8 443.27,-178.8 443.27,-214.8"/>
<text text-anchor="middle" x="398" y="-192.6" font-family="Times,serif" font-size="14.00">UtilsModule </text>
</g>
<!-- DynamicViewsModule&#45;&gt;UtilsModule  -->
<g id="edge8" class="edge">
<title>DynamicViewsModule&#45;&gt;UtilsModule </title>
<path fill="none" stroke="black" stroke-dasharray="5,2" d="M398,-149.91C398,-149.91 398,-168.79 398,-168.79"/>
<polygon fill="black" stroke="black" points="394.5,-168.79 398,-178.79 401.5,-168.79 394.5,-168.79"/>
</g>
<!-- ZoneComponent  -->
<g id="node10" class="node">
<title>ZoneComponent </title>
<polygon fill="#fb8072" stroke="black" points="334.6,-214.8 221.4,-214.8 221.4,-178.8 334.6,-178.8 334.6,-214.8"/>
<text text-anchor="middle" x="278" y="-192.6" font-family="Times,serif" font-size="14.00">ZoneComponent </text>
</g>
<!-- DynamicViewsModule&#45;&gt;ZoneComponent  -->
<g id="edge9" class="edge">
<title>DynamicViewsModule&#45;&gt;ZoneComponent </title>
<path fill="none" stroke="black" stroke-dasharray="5,2" d="M329.74,-149.91C329.74,-149.91 329.74,-168.79 329.74,-168.79"/>
<polygon fill="black" stroke="black" points="326.24,-168.79 329.74,-178.79 333.24,-168.79 326.24,-168.79"/>
</g>
<!-- ConfigurableModule -->
<g id="node5" class="node">
<title>ConfigurableModule</title>
<polygon fill="#8dd3c7" stroke="black" points="391.92,-84.8 388.92,-88.8 367.92,-88.8 364.92,-84.8 258.08,-84.8 258.08,-48.8 391.92,-48.8 391.92,-84.8"/>
<text text-anchor="middle" x="325" y="-62.6" font-family="Times,serif" font-size="14.00">ConfigurableModule</text>
</g>
<!-- ConfigurableModule&#45;&gt;DynamicViewsModule -->
<g id="edge4" class="edge">
<title>ConfigurableModule&#45;&gt;DynamicViewsModule</title>
<path fill="none" stroke="black" d="M358.2,-84.91C358.2,-84.91 358.2,-103.79 358.2,-103.79"/>
<polygon fill="black" stroke="black" points="354.7,-103.79 358.2,-113.79 361.7,-103.79 354.7,-103.79"/>
</g>
<!-- SvgIconsModule -->
<g id="node6" class="node">
<title>SvgIconsModule</title>
<polygon fill="#8dd3c7" stroke="black" points="239.65,-84.8 236.65,-88.8 215.65,-88.8 212.65,-84.8 128.35,-84.8 128.35,-48.8 239.65,-48.8 239.65,-84.8"/>
<text text-anchor="middle" x="184" y="-62.6" font-family="Times,serif" font-size="14.00">SvgIconsModule</text>
</g>
<!-- SvgIconsModule&#45;&gt;DynamicViewsModule -->
<g id="edge5" class="edge">
<title>SvgIconsModule&#45;&gt;DynamicViewsModule</title>
<path fill="none" stroke="black" d="M230.51,-84.82C230.51,-102.17 230.51,-125.8 230.51,-125.8 230.51,-125.8 314.54,-125.8 314.54,-125.8"/>
<polygon fill="black" stroke="black" points="314.54,-129.3 324.54,-125.8 314.54,-122.3 314.54,-129.3"/>
</g>
<!-- UtilsModule -->
<g id="node7" class="node">
<title>UtilsModule</title>
<polygon fill="#8dd3c7" stroke="black" points="110.27,-84.8 107.27,-88.8 86.27,-88.8 83.27,-84.8 23.73,-84.8 23.73,-48.8 110.27,-48.8 110.27,-84.8"/>
<text text-anchor="middle" x="67" y="-62.6" font-family="Times,serif" font-size="14.00">UtilsModule</text>
</g>
<!-- UtilsModule&#45;&gt;DynamicViewsModule -->
<g id="edge6" class="edge">
<title>UtilsModule&#45;&gt;DynamicViewsModule</title>
<path fill="none" stroke="black" d="M67,-85.08C67,-106.12 67,-137.8 67,-137.8 67,-137.8 314.54,-137.8 314.54,-137.8"/>
<polygon fill="black" stroke="black" points="314.54,-141.3 324.54,-137.8 314.54,-134.3 314.54,-141.3"/>
</g>
</g>
</svg>
