<?xml version="1.0" encoding="UTF-8" standalone="no"?>
<!DOCTYPE svg PUBLIC "-//W3C//DTD SVG 1.1//EN"
 "http://www.w3.org/Graphics/SVG/1.1/DTD/svg11.dtd">
<!-- Generated by graphviz version 5.0.0 (20220707.1540)
 -->
<!-- Title: dependencies Pages: 1 -->
<svg width="553pt" height="247pt"
 viewBox="0.00 0.00 553.00 246.80" xmlns="http://www.w3.org/2000/svg" xmlns:xlink="http://www.w3.org/1999/xlink">
<g id="graph0" class="graph" transform="scale(1 1) rotate(0) translate(4 242.8)">
<title>dependencies</title>
<polygon fill="white" stroke="transparent" points="-4,4 -4,-242.8 549,-242.8 549,4 -4,4"/>
<text text-anchor="middle" x="272.5" y="-8.2" font-family="sans-serif" font-size="14.00">dependencies</text>
<g id="clust1" class="cluster">
<title>cluster_DynamicViewsModule</title>
<polygon fill="none" stroke="black" stroke-dasharray="1,5" points="8,-32.8 8,-230.8 537,-230.8 537,-32.8 8,-32.8"/>
</g>
<g id="clust2" class="cluster">
<title>cluster_DynamicViewsModule_declarations</title>
<polygon fill="none" stroke="black" points="278,-40.8 278,-92.8 529,-92.8 529,-40.8 278,-40.8"/>
</g>
<g id="clust6" class="cluster">
<title>cluster_DynamicViewsModule_exports</title>
<polygon fill="none" stroke="black" points="73,-170.8 73,-222.8 311,-222.8 311,-170.8 73,-170.8"/>
</g>
<g id="clust5" class="cluster">
<title>cluster_DynamicViewsModule_imports</title>
<polygon fill="none" stroke="black" points="16,-40.8 16,-92.8 270,-92.8 270,-40.8 16,-40.8"/>
</g>
<!-- ItemComponent -->
<g id="node1" class="node">
<title>ItemComponent</title>
<polygon fill="#ffffb3" stroke="black" points="521.49,-84.8 414.51,-84.8 414.51,-48.8 521.49,-48.8 521.49,-84.8"/>
<text text-anchor="middle" x="468" y="-62.6" font-family="Times,serif" font-size="14.00">ItemComponent</text>
</g>
<!-- DynamicViewsModule -->
<g id="node3" class="node">
<title>DynamicViewsModule</title>
<polygon fill="#8dd3c7" stroke="black" points="299.14,-149.8 296.14,-153.8 275.14,-153.8 272.14,-149.8 152.86,-149.8 152.86,-113.8 299.14,-113.8 299.14,-149.8"/>
<text text-anchor="middle" x="226" y="-127.6" font-family="Times,serif" font-size="14.00">DynamicViewsModule</text>
</g>
<!-- ItemComponent&#45;&gt;DynamicViewsModule -->
<g id="edge1" class="edge">
<title>ItemComponent&#45;&gt;DynamicViewsModule</title>
<path fill="none" stroke="black" d="M468,-84.91C468,-104.14 468,-131.8 468,-131.8 468,-131.8 309.26,-131.8 309.26,-131.8"/>
<polygon fill="black" stroke="black" points="309.26,-128.3 299.26,-131.8 309.26,-135.3 309.26,-128.3"/>
</g>
<!-- ZoneComponent -->
<g id="node2" class="node">
<title>ZoneComponent</title>
<polygon fill="#ffffb3" stroke="black" points="396.1,-84.8 285.9,-84.8 285.9,-48.8 396.1,-48.8 396.1,-84.8"/>
<text text-anchor="middle" x="341" y="-62.6" font-family="Times,serif" font-size="14.00">ZoneComponent</text>
</g>
<!-- ZoneComponent&#45;&gt;DynamicViewsModule -->
<g id="edge2" class="edge">
<title>ZoneComponent&#45;&gt;DynamicViewsModule</title>
<path fill="none" stroke="black" d="M292.64,-84.91C292.64,-84.91 292.64,-103.79 292.64,-103.79"/>
<polygon fill="black" stroke="black" points="289.14,-103.79 292.64,-113.79 296.14,-103.79 289.14,-103.79"/>
</g>
<!-- UtilsModule  -->
<g id="node6" class="node">
<title>UtilsModule </title>
<polygon fill="#fb8072" stroke="black" points="303.28,-214.8 212.72,-214.8 212.72,-178.8 303.28,-178.8 303.28,-214.8"/>
<text text-anchor="middle" x="258" y="-192.6" font-family="Times,serif" font-size="14.00">UtilsModule </text>
</g>
<!-- DynamicViewsModule&#45;&gt;UtilsModule  -->
<g id="edge5" class="edge">
<title>DynamicViewsModule&#45;&gt;UtilsModule </title>
<path fill="none" stroke="black" stroke-dasharray="5,2" d="M256.09,-149.91C256.09,-149.91 256.09,-168.79 256.09,-168.79"/>
<polygon fill="black" stroke="black" points="252.59,-168.79 256.09,-178.79 259.59,-168.79 252.59,-168.79"/>
</g>
<!-- ZoneComponent  -->
<g id="node7" class="node">
<title>ZoneComponent </title>
<polygon fill="#fb8072" stroke="black" points="194.6,-214.8 81.4,-214.8 81.4,-178.8 194.6,-178.8 194.6,-214.8"/>
<text text-anchor="middle" x="138" y="-192.6" font-family="Times,serif" font-size="14.00">ZoneComponent </text>
</g>
<!-- DynamicViewsModule&#45;&gt;ZoneComponent  -->
<g id="edge6" class="edge">
<title>DynamicViewsModule&#45;&gt;ZoneComponent </title>
<path fill="none" stroke="black" stroke-dasharray="5,2" d="M173.74,-149.91C173.74,-149.91 173.74,-168.79 173.74,-168.79"/>
<polygon fill="black" stroke="black" points="170.24,-168.79 173.74,-178.79 177.24,-168.79 170.24,-168.79"/>
</g>
<!-- ConfigurableModule -->
<g id="node4" class="node">
<title>ConfigurableModule</title>
<polygon fill="#8dd3c7" stroke="black" points="261.92,-84.8 258.92,-88.8 237.92,-88.8 234.92,-84.8 128.08,-84.8 128.08,-48.8 261.92,-48.8 261.92,-84.8"/>
<text text-anchor="middle" x="195" y="-62.6" font-family="Times,serif" font-size="14.00">ConfigurableModule</text>
</g>
<!-- ConfigurableModule&#45;&gt;DynamicViewsModule -->
<g id="edge3" class="edge">
<title>ConfigurableModule&#45;&gt;DynamicViewsModule</title>
<path fill="none" stroke="black" d="M207.19,-84.91C207.19,-84.91 207.19,-103.79 207.19,-103.79"/>
<polygon fill="black" stroke="black" points="203.69,-103.79 207.19,-113.79 210.69,-103.79 203.69,-103.79"/>
</g>
<!-- UtilsModule -->
<g id="node5" class="node">
<title>UtilsModule</title>
<polygon fill="#8dd3c7" stroke="black" points="110.28,-84.8 107.28,-88.8 86.28,-88.8 83.28,-84.8 23.72,-84.8 23.72,-48.8 110.28,-48.8 110.28,-84.8"/>
<text text-anchor="middle" x="67" y="-62.6" font-family="Times,serif" font-size="14.00">UtilsModule</text>
</g>
<!-- UtilsModule&#45;&gt;DynamicViewsModule -->
<g id="edge4" class="edge">
<title>UtilsModule&#45;&gt;DynamicViewsModule</title>
<path fill="none" stroke="black" d="M95.8,-84.91C95.8,-104.14 95.8,-131.8 95.8,-131.8 95.8,-131.8 142.53,-131.8 142.53,-131.8"/>
<polygon fill="black" stroke="black" points="142.53,-135.3 152.53,-131.8 142.53,-128.3 142.53,-135.3"/>
</g>
</g>
</svg>
