<?xml version="1.0" encoding="UTF-8" standalone="no"?>
<!DOCTYPE svg PUBLIC "-//W3C//DTD SVG 1.1//EN"
 "http://www.w3.org/Graphics/SVG/1.1/DTD/svg11.dtd">
<!-- Generated by graphviz version 5.0.0 (20220707.1540)
 -->
<!-- Title: dependencies Pages: 1 -->
<svg width="1710pt" height="247pt"
 viewBox="0.00 0.00 1710.00 246.80" xmlns="http://www.w3.org/2000/svg" xmlns:xlink="http://www.w3.org/1999/xlink">
<g id="graph0" class="graph" transform="scale(1 1) rotate(0) translate(4 242.8)">
<title>dependencies</title>
<polygon fill="white" stroke="transparent" points="-4,4 -4,-242.8 1706,-242.8 1706,4 -4,4"/>
<text text-anchor="middle" x="851" y="-8.2" font-family="sans-serif" font-size="14.00">dependencies</text>
<g id="clust1" class="cluster">
<title>cluster_ConfiguratorModule</title>
<polygon fill="none" stroke="black" stroke-dasharray="1,5" points="8,-32.8 8,-230.8 1694,-230.8 1694,-32.8 8,-32.8"/>
</g>
<g id="clust13" class="cluster">
<title>cluster_ConfiguratorModule_exports</title>
<polygon fill="none" stroke="black" points="661,-170.8 661,-222.8 1090,-222.8 1090,-170.8 661,-170.8"/>
</g>
<g id="clust12" class="cluster">
<title>cluster_ConfiguratorModule_imports</title>
<polygon fill="none" stroke="black" points="1454,-40.8 1454,-92.8 1686,-92.8 1686,-40.8 1454,-40.8"/>
</g>
<g id="clust2" class="cluster">
<title>cluster_ConfiguratorModule_declarations</title>
<polygon fill="none" stroke="black" points="16,-40.8 16,-92.8 1446,-92.8 1446,-40.8 16,-40.8"/>
</g>
<!-- ClassEditorComponent -->
<g id="node1" class="node">
<title>ClassEditorComponent</title>
<polygon fill="#ffffb3" stroke="black" points="1438.16,-84.8 1291.84,-84.8 1291.84,-48.8 1438.16,-48.8 1438.16,-84.8"/>
<text text-anchor="middle" x="1365" y="-62.6" font-family="Times,serif" font-size="14.00">ClassEditorComponent</text>
</g>
<!-- ConfiguratorModule -->
<g id="node10" class="node">
<title>ConfiguratorModule</title>
<polygon fill="#8dd3c7" stroke="black" points="907.87,-149.8 904.87,-153.8 883.87,-153.8 880.87,-149.8 776.13,-149.8 776.13,-113.8 907.87,-113.8 907.87,-149.8"/>
<text text-anchor="middle" x="842" y="-127.6" font-family="Times,serif" font-size="14.00">ConfiguratorModule</text>
</g>
<!-- ClassEditorComponent&#45;&gt;ConfiguratorModule -->
<g id="edge1" class="edge">
<title>ClassEditorComponent&#45;&gt;ConfiguratorModule</title>
<path fill="none" stroke="black" d="M1365,-85.02C1365,-103.63 1365,-129.8 1365,-129.8 1365,-129.8 917.97,-129.8 917.97,-129.8"/>
<polygon fill="black" stroke="black" points="917.97,-126.3 907.97,-129.8 917.97,-133.3 917.97,-126.3"/>
</g>
<!-- ConditionEditorComponent -->
<g id="node2" class="node">
<title>ConditionEditorComponent</title>
<polygon fill="#ffffb3" stroke="black" points="1274.33,-84.8 1101.67,-84.8 1101.67,-48.8 1274.33,-48.8 1274.33,-84.8"/>
<text text-anchor="middle" x="1188" y="-62.6" font-family="Times,serif" font-size="14.00">ConditionEditorComponent</text>
</g>
<!-- ConditionEditorComponent&#45;&gt;ConfiguratorModule -->
<g id="edge2" class="edge">
<title>ConditionEditorComponent&#45;&gt;ConfiguratorModule</title>
<path fill="none" stroke="black" d="M1188,-84.83C1188,-101.86 1188,-124.8 1188,-124.8 1188,-124.8 917.89,-124.8 917.89,-124.8"/>
<polygon fill="black" stroke="black" points="917.89,-121.3 907.89,-124.8 917.89,-128.3 917.89,-121.3"/>
</g>
<!-- ConfiguratorComponent -->
<g id="node3" class="node">
<title>ConfiguratorComponent</title>
<polygon fill="#ffffb3" stroke="black" points="1083.65,-84.8 930.35,-84.8 930.35,-48.8 1083.65,-48.8 1083.65,-84.8"/>
<text text-anchor="middle" x="1007" y="-62.6" font-family="Times,serif" font-size="14.00">ConfiguratorComponent</text>
</g>
<!-- ConfiguratorComponent&#45;&gt;ConfiguratorModule -->
<g id="edge3" class="edge">
<title>ConfiguratorComponent&#45;&gt;ConfiguratorModule</title>
<path fill="none" stroke="black" d="M980.64,-85.04C980.64,-100.37 980.64,-119.8 980.64,-119.8 980.64,-119.8 918.07,-119.8 918.07,-119.8"/>
<polygon fill="black" stroke="black" points="918.07,-116.3 908.07,-119.8 918.07,-123.3 918.07,-116.3"/>
</g>
<!-- FlexEditorComponent -->
<g id="node4" class="node">
<title>FlexEditorComponent</title>
<polygon fill="#ffffb3" stroke="black" points="912.71,-84.8 771.29,-84.8 771.29,-48.8 912.71,-48.8 912.71,-84.8"/>
<text text-anchor="middle" x="842" y="-62.6" font-family="Times,serif" font-size="14.00">FlexEditorComponent</text>
</g>
<!-- FlexEditorComponent&#45;&gt;ConfiguratorModule -->
<g id="edge4" class="edge">
<title>FlexEditorComponent&#45;&gt;ConfiguratorModule</title>
<path fill="none" stroke="black" d="M842,-84.91C842,-84.91 842,-103.79 842,-103.79"/>
<polygon fill="black" stroke="black" points="838.5,-103.79 842,-113.79 845.5,-103.79 838.5,-103.79"/>
</g>
<!-- HtmlEditorComponent -->
<g id="node5" class="node">
<title>HtmlEditorComponent</title>
<polygon fill="#ffffb3" stroke="black" points="753.6,-84.8 608.4,-84.8 608.4,-48.8 753.6,-48.8 753.6,-84.8"/>
<text text-anchor="middle" x="681" y="-62.6" font-family="Times,serif" font-size="14.00">HtmlEditorComponent</text>
</g>
<!-- HtmlEditorComponent&#45;&gt;ConfiguratorModule -->
<g id="edge5" class="edge">
<title>HtmlEditorComponent&#45;&gt;ConfiguratorModule</title>
<path fill="none" stroke="black" d="M697.09,-85.04C697.09,-100.37 697.09,-119.8 697.09,-119.8 697.09,-119.8 765.91,-119.8 765.91,-119.8"/>
<polygon fill="black" stroke="black" points="765.91,-123.3 775.91,-119.8 765.91,-116.3 765.91,-123.3"/>
</g>
<!-- PaletteComponent -->
<g id="node6" class="node">
<title>PaletteComponent</title>
<polygon fill="#ffffb3" stroke="black" points="590.93,-84.8 471.07,-84.8 471.07,-48.8 590.93,-48.8 590.93,-84.8"/>
<text text-anchor="middle" x="531" y="-62.6" font-family="Times,serif" font-size="14.00">PaletteComponent</text>
</g>
<!-- PaletteComponent&#45;&gt;ConfiguratorModule -->
<g id="edge6" class="edge">
<title>PaletteComponent&#45;&gt;ConfiguratorModule</title>
<path fill="none" stroke="black" d="M531,-84.83C531,-101.86 531,-124.8 531,-124.8 531,-124.8 766.04,-124.8 766.04,-124.8"/>
<polygon fill="black" stroke="black" points="766.04,-128.3 776.04,-124.8 766.04,-121.3 766.04,-128.3"/>
</g>
<!-- SpacingEditorComponent -->
<g id="node7" class="node">
<title>SpacingEditorComponent</title>
<polygon fill="#ffffb3" stroke="black" points="453.93,-84.8 292.07,-84.8 292.07,-48.8 453.93,-48.8 453.93,-84.8"/>
<text text-anchor="middle" x="373" y="-62.6" font-family="Times,serif" font-size="14.00">SpacingEditorComponent</text>
</g>
<!-- SpacingEditorComponent&#45;&gt;ConfiguratorModule -->
<g id="edge7" class="edge">
<title>SpacingEditorComponent&#45;&gt;ConfiguratorModule</title>
<path fill="none" stroke="black" d="M373,-85.02C373,-103.63 373,-129.8 373,-129.8 373,-129.8 765.8,-129.8 765.8,-129.8"/>
<polygon fill="black" stroke="black" points="765.8,-133.3 775.8,-129.8 765.8,-126.3 765.8,-133.3"/>
</g>
<!-- ToolbarComponent -->
<g id="node8" class="node">
<title>ToolbarComponent</title>
<polygon fill="#ffffb3" stroke="black" points="273.65,-84.8 148.35,-84.8 148.35,-48.8 273.65,-48.8 273.65,-84.8"/>
<text text-anchor="middle" x="211" y="-62.6" font-family="Times,serif" font-size="14.00">ToolbarComponent</text>
</g>
<!-- ToolbarComponent&#45;&gt;ConfiguratorModule -->
<g id="edge8" class="edge">
<title>ToolbarComponent&#45;&gt;ConfiguratorModule</title>
<path fill="none" stroke="black" d="M211,-85.02C211,-105.17 211,-134.8 211,-134.8 211,-134.8 765.96,-134.8 765.96,-134.8"/>
<polygon fill="black" stroke="black" points="765.96,-138.3 775.96,-134.8 765.96,-131.3 765.96,-138.3"/>
</g>
<!-- TreeComponent -->
<g id="node9" class="node">
<title>TreeComponent</title>
<polygon fill="#ffffb3" stroke="black" points="130.47,-84.8 23.53,-84.8 23.53,-48.8 130.47,-48.8 130.47,-84.8"/>
<text text-anchor="middle" x="77" y="-62.6" font-family="Times,serif" font-size="14.00">TreeComponent</text>
</g>
<!-- TreeComponent&#45;&gt;ConfiguratorModule -->
<g id="edge9" class="edge">
<title>TreeComponent&#45;&gt;ConfiguratorModule</title>
<path fill="none" stroke="black" d="M77,-84.84C77,-106.46 77,-139.8 77,-139.8 77,-139.8 766.11,-139.8 766.11,-139.8"/>
<polygon fill="black" stroke="black" points="766.11,-143.3 776.11,-139.8 766.11,-136.3 766.11,-143.3"/>
</g>
<!-- ConfiguratorComponent  -->
<g id="node13" class="node">
<title>ConfiguratorComponent </title>
<polygon fill="#fb8072" stroke="black" points="1081.65,-214.8 924.35,-214.8 924.35,-178.8 1081.65,-178.8 1081.65,-214.8"/>
<text text-anchor="middle" x="1003" y="-192.6" font-family="Times,serif" font-size="14.00">ConfiguratorComponent </text>
</g>
<!-- ConfiguratorModule&#45;&gt;ConfiguratorComponent  -->
<g id="edge12" class="edge">
<title>ConfiguratorModule&#45;&gt;ConfiguratorComponent </title>
<path fill="none" stroke="black" stroke-dasharray="5,2" d="M907.88,-144.8C962.45,-144.8 1031.11,-144.8 1031.11,-144.8 1031.11,-144.8 1031.11,-168.61 1031.11,-168.61"/>
<polygon fill="black" stroke="black" points="1027.61,-168.61 1031.11,-178.61 1034.61,-168.61 1027.61,-168.61"/>
</g>
<!-- ToolbarComponent  -->
<g id="node14" class="node">
<title>ToolbarComponent </title>
<polygon fill="#fb8072" stroke="black" points="906.65,-214.8 777.35,-214.8 777.35,-178.8 906.65,-178.8 906.65,-214.8"/>
<text text-anchor="middle" x="842" y="-192.6" font-family="Times,serif" font-size="14.00">ToolbarComponent </text>
</g>
<!-- ConfiguratorModule&#45;&gt;ToolbarComponent  -->
<g id="edge13" class="edge">
<title>ConfiguratorModule&#45;&gt;ToolbarComponent </title>
<path fill="none" stroke="black" stroke-dasharray="5,2" d="M842,-149.91C842,-149.91 842,-168.79 842,-168.79"/>
<polygon fill="black" stroke="black" points="838.5,-168.79 842,-178.79 845.5,-168.79 838.5,-168.79"/>
</g>
<!-- UtilsModule  -->
<g id="node15" class="node">
<title>UtilsModule </title>
<polygon fill="#fb8072" stroke="black" points="759.28,-214.8 668.72,-214.8 668.72,-178.8 759.28,-178.8 759.28,-214.8"/>
<text text-anchor="middle" x="714" y="-192.6" font-family="Times,serif" font-size="14.00">UtilsModule </text>
</g>
<!-- ConfiguratorModule&#45;&gt;UtilsModule  -->
<g id="edge14" class="edge">
<title>ConfiguratorModule&#45;&gt;UtilsModule </title>
<path fill="none" stroke="black" stroke-dasharray="5,2" d="M775.82,-144.8C749.48,-144.8 725.32,-144.8 725.32,-144.8 725.32,-144.8 725.32,-168.61 725.32,-168.61"/>
<polygon fill="black" stroke="black" points="721.82,-168.61 725.32,-178.61 728.82,-168.61 721.82,-168.61"/>
</g>
<!-- SvgIconsModule -->
<g id="node11" class="node">
<title>SvgIconsModule</title>
<polygon fill="#8dd3c7" stroke="black" points="1677.66,-84.8 1674.66,-88.8 1653.66,-88.8 1650.66,-84.8 1566.34,-84.8 1566.34,-48.8 1677.66,-48.8 1677.66,-84.8"/>
<text text-anchor="middle" x="1622" y="-62.6" font-family="Times,serif" font-size="14.00">SvgIconsModule</text>
</g>
<!-- SvgIconsModule&#45;&gt;ConfiguratorModule -->
<g id="edge10" class="edge">
<title>SvgIconsModule&#45;&gt;ConfiguratorModule</title>
<path fill="none" stroke="black" d="M1622,-84.84C1622,-106.46 1622,-139.8 1622,-139.8 1622,-139.8 918.17,-139.8 918.17,-139.8"/>
<polygon fill="black" stroke="black" points="918.17,-136.3 908.17,-139.8 918.17,-143.3 918.17,-136.3"/>
</g>
<!-- UtilsModule -->
<g id="node12" class="node">
<title>UtilsModule</title>
<polygon fill="#8dd3c7" stroke="black" points="1548.28,-84.8 1545.28,-88.8 1524.28,-88.8 1521.28,-84.8 1461.72,-84.8 1461.72,-48.8 1548.28,-48.8 1548.28,-84.8"/>
<text text-anchor="middle" x="1505" y="-62.6" font-family="Times,serif" font-size="14.00">UtilsModule</text>
</g>
<!-- UtilsModule&#45;&gt;ConfiguratorModule -->
<g id="edge11" class="edge">
<title>UtilsModule&#45;&gt;ConfiguratorModule</title>
<path fill="none" stroke="black" d="M1505,-85.02C1505,-105.17 1505,-134.8 1505,-134.8 1505,-134.8 917.99,-134.8 917.99,-134.8"/>
<polygon fill="black" stroke="black" points="917.99,-131.3 907.99,-134.8 917.99,-138.3 917.99,-131.3"/>
</g>
</g>
</svg>
