<?xml version="1.0" encoding="UTF-8" standalone="no"?>
<!DOCTYPE svg PUBLIC "-//W3C//DTD SVG 1.1//EN"
 "http://www.w3.org/Graphics/SVG/1.1/DTD/svg11.dtd">
<!-- Generated by graphviz version 2.47.3 (20210619.1520)
 -->
<!-- Title: dependencies Pages: 1 -->
<svg width="1531pt" height="247pt"
 viewBox="0.00 0.00 1531.00 246.80" xmlns="http://www.w3.org/2000/svg" xmlns:xlink="http://www.w3.org/1999/xlink">
<g id="graph0" class="graph" transform="scale(1 1) rotate(0) translate(4 242.8)">
<title>dependencies</title>
<polygon fill="white" stroke="transparent" points="-4,4 -4,-242.8 1527,-242.8 1527,4 -4,4"/>
<text text-anchor="middle" x="761.5" y="-8.2" font-family="sans-serif" font-size="14.00">dependencies</text>
<g id="clust1" class="cluster">
<title>cluster_ConfiguratorModule</title>
<polygon fill="none" stroke="black" stroke-dasharray="1,5" points="8,-32.8 8,-230.8 1515,-230.8 1515,-32.8 8,-32.8"/>
</g>
<g id="clust12" class="cluster">
<title>cluster_ConfiguratorModule_exports</title>
<polygon fill="none" stroke="black" points="486,-170.8 486,-222.8 915,-222.8 915,-170.8 486,-170.8"/>
</g>
<g id="clust2" class="cluster">
<title>cluster_ConfiguratorModule_declarations</title>
<polygon fill="none" stroke="black" points="256,-40.8 256,-92.8 1507,-92.8 1507,-40.8 256,-40.8"/>
</g>
<g id="clust11" class="cluster">
<title>cluster_ConfiguratorModule_imports</title>
<polygon fill="none" stroke="black" points="16,-40.8 16,-92.8 248,-92.8 248,-40.8 16,-40.8"/>
</g>
<!-- ClassEditorComponent -->
<g id="node1" class="node">
<title>ClassEditorComponent</title>
<polygon fill="#ffffb3" stroke="black" points="1499.16,-84.8 1352.84,-84.8 1352.84,-48.8 1499.16,-48.8 1499.16,-84.8"/>
<text text-anchor="middle" x="1426" y="-62.6" font-family="Times,serif" font-size="14.00">ClassEditorComponent</text>
</g>
<!-- ConfiguratorModule -->
<g id="node9" class="node">
<title>ConfiguratorModule</title>
<polygon fill="#8dd3c7" stroke="black" points="732.86,-149.8 729.86,-153.8 708.86,-153.8 705.86,-149.8 601.14,-149.8 601.14,-113.8 732.86,-113.8 732.86,-149.8"/>
<text text-anchor="middle" x="667" y="-127.6" font-family="Times,serif" font-size="14.00">ConfiguratorModule</text>
</g>
<!-- ClassEditorComponent&#45;&gt;ConfiguratorModule -->
<g id="edge1" class="edge">
<title>ClassEditorComponent&#45;&gt;ConfiguratorModule</title>
<path fill="none" stroke="black" d="M1426,-85.08C1426,-106.12 1426,-137.8 1426,-137.8 1426,-137.8 743.03,-137.8 743.03,-137.8"/>
<polygon fill="black" stroke="black" points="743.03,-134.3 733.03,-137.8 743.03,-141.3 743.03,-134.3"/>
</g>
<!-- ConditionEditorComponent -->
<g id="node2" class="node">
<title>ConditionEditorComponent</title>
<polygon fill="#ffffb3" stroke="black" points="1335.34,-84.8 1162.66,-84.8 1162.66,-48.8 1335.34,-48.8 1335.34,-84.8"/>
<text text-anchor="middle" x="1249" y="-62.6" font-family="Times,serif" font-size="14.00">ConditionEditorComponent</text>
</g>
<!-- ConditionEditorComponent&#45;&gt;ConfiguratorModule -->
<g id="edge2" class="edge">
<title>ConditionEditorComponent&#45;&gt;ConfiguratorModule</title>
<path fill="none" stroke="black" d="M1249,-84.91C1249,-104.14 1249,-131.8 1249,-131.8 1249,-131.8 742.91,-131.8 742.91,-131.8"/>
<polygon fill="black" stroke="black" points="742.91,-128.3 732.91,-131.8 742.91,-135.3 742.91,-128.3"/>
</g>
<!-- ConfiguratorComponent -->
<g id="node3" class="node">
<title>ConfiguratorComponent</title>
<polygon fill="#ffffb3" stroke="black" points="1144.65,-84.8 991.35,-84.8 991.35,-48.8 1144.65,-48.8 1144.65,-84.8"/>
<text text-anchor="middle" x="1068" y="-62.6" font-family="Times,serif" font-size="14.00">ConfiguratorComponent</text>
</g>
<!-- ConfiguratorComponent&#45;&gt;ConfiguratorModule -->
<g id="edge3" class="edge">
<title>ConfiguratorComponent&#45;&gt;ConfiguratorModule</title>
<path fill="none" stroke="black" d="M1068,-84.82C1068,-102.17 1068,-125.8 1068,-125.8 1068,-125.8 743.22,-125.8 743.22,-125.8"/>
<polygon fill="black" stroke="black" points="743.22,-122.3 733.22,-125.8 743.22,-129.3 743.22,-122.3"/>
</g>
<!-- FlexEditorComponent -->
<g id="node4" class="node">
<title>FlexEditorComponent</title>
<polygon fill="#ffffb3" stroke="black" points="973.71,-84.8 832.29,-84.8 832.29,-48.8 973.71,-48.8 973.71,-84.8"/>
<text text-anchor="middle" x="903" y="-62.6" font-family="Times,serif" font-size="14.00">FlexEditorComponent</text>
</g>
<!-- FlexEditorComponent&#45;&gt;ConfiguratorModule -->
<g id="edge4" class="edge">
<title>FlexEditorComponent&#45;&gt;ConfiguratorModule</title>
<path fill="none" stroke="black" d="M869.48,-85.04C869.48,-100.37 869.48,-119.8 869.48,-119.8 869.48,-119.8 743.02,-119.8 743.02,-119.8"/>
<polygon fill="black" stroke="black" points="743.02,-116.3 733.02,-119.8 743.02,-123.3 743.02,-116.3"/>
</g>
<!-- HtmlEditorComponent -->
<g id="node5" class="node">
<title>HtmlEditorComponent</title>
<polygon fill="#ffffb3" stroke="black" points="814.61,-84.8 669.39,-84.8 669.39,-48.8 814.61,-48.8 814.61,-84.8"/>
<text text-anchor="middle" x="742" y="-62.6" font-family="Times,serif" font-size="14.00">HtmlEditorComponent</text>
</g>
<!-- HtmlEditorComponent&#45;&gt;ConfiguratorModule -->
<g id="edge5" class="edge">
<title>HtmlEditorComponent&#45;&gt;ConfiguratorModule</title>
<path fill="none" stroke="black" d="M701.19,-84.91C701.19,-84.91 701.19,-103.79 701.19,-103.79"/>
<polygon fill="black" stroke="black" points="697.69,-103.79 701.19,-113.79 704.69,-103.79 697.69,-103.79"/>
</g>
<!-- PaletteComponent -->
<g id="node6" class="node">
<title>PaletteComponent</title>
<polygon fill="#ffffb3" stroke="black" points="651.93,-84.8 532.07,-84.8 532.07,-48.8 651.93,-48.8 651.93,-84.8"/>
<text text-anchor="middle" x="592" y="-62.6" font-family="Times,serif" font-size="14.00">PaletteComponent</text>
</g>
<!-- PaletteComponent&#45;&gt;ConfiguratorModule -->
<g id="edge6" class="edge">
<title>PaletteComponent&#45;&gt;ConfiguratorModule</title>
<path fill="none" stroke="black" d="M626.39,-84.91C626.39,-84.91 626.39,-103.79 626.39,-103.79"/>
<polygon fill="black" stroke="black" points="622.89,-103.79 626.39,-113.79 629.89,-103.79 622.89,-103.79"/>
</g>
<!-- ToolbarComponent -->
<g id="node7" class="node">
<title>ToolbarComponent</title>
<polygon fill="#ffffb3" stroke="black" points="513.65,-84.8 388.35,-84.8 388.35,-48.8 513.65,-48.8 513.65,-84.8"/>
<text text-anchor="middle" x="451" y="-62.6" font-family="Times,serif" font-size="14.00">ToolbarComponent</text>
</g>
<!-- ToolbarComponent&#45;&gt;ConfiguratorModule -->
<g id="edge7" class="edge">
<title>ToolbarComponent&#45;&gt;ConfiguratorModule</title>
<path fill="none" stroke="black" d="M503.84,-85.04C503.84,-100.37 503.84,-119.8 503.84,-119.8 503.84,-119.8 591.11,-119.8 591.11,-119.8"/>
<polygon fill="black" stroke="black" points="591.11,-123.3 601.11,-119.8 591.11,-116.3 591.11,-123.3"/>
</g>
<!-- TreeComponent -->
<g id="node8" class="node">
<title>TreeComponent</title>
<polygon fill="#ffffb3" stroke="black" points="370.47,-84.8 263.53,-84.8 263.53,-48.8 370.47,-48.8 370.47,-84.8"/>
<text text-anchor="middle" x="317" y="-62.6" font-family="Times,serif" font-size="14.00">TreeComponent</text>
</g>
<!-- TreeComponent&#45;&gt;ConfiguratorModule -->
<g id="edge8" class="edge">
<title>TreeComponent&#45;&gt;ConfiguratorModule</title>
<path fill="none" stroke="black" d="M317,-84.82C317,-102.17 317,-125.8 317,-125.8 317,-125.8 590.76,-125.8 590.76,-125.8"/>
<polygon fill="black" stroke="black" points="590.76,-129.3 600.76,-125.8 590.76,-122.3 590.76,-129.3"/>
</g>
<!-- ConfiguratorComponent  -->
<g id="node12" class="node">
<title>ConfiguratorComponent </title>
<polygon fill="#fb8072" stroke="black" points="906.65,-214.8 749.35,-214.8 749.35,-178.8 906.65,-178.8 906.65,-214.8"/>
<text text-anchor="middle" x="828" y="-192.6" font-family="Times,serif" font-size="14.00">ConfiguratorComponent </text>
</g>
<!-- ConfiguratorModule&#45;&gt;ConfiguratorComponent  -->
<g id="edge11" class="edge">
<title>ConfiguratorModule&#45;&gt;ConfiguratorComponent </title>
<path fill="none" stroke="black" stroke-dasharray="5,2" d="M732.89,-143.8C758.58,-143.8 781.99,-143.8 781.99,-143.8 781.99,-143.8 781.99,-168.56 781.99,-168.56"/>
<polygon fill="black" stroke="black" points="778.49,-168.56 781.99,-178.56 785.49,-168.56 778.49,-168.56"/>
</g>
<!-- ToolbarComponent  -->
<g id="node13" class="node">
<title>ToolbarComponent </title>
<polygon fill="#fb8072" stroke="black" points="731.65,-214.8 602.35,-214.8 602.35,-178.8 731.65,-178.8 731.65,-214.8"/>
<text text-anchor="middle" x="667" y="-192.6" font-family="Times,serif" font-size="14.00">ToolbarComponent </text>
</g>
<!-- ConfiguratorModule&#45;&gt;ToolbarComponent  -->
<g id="edge12" class="edge">
<title>ConfiguratorModule&#45;&gt;ToolbarComponent </title>
<path fill="none" stroke="black" stroke-dasharray="5,2" d="M667,-149.91C667,-149.91 667,-168.79 667,-168.79"/>
<polygon fill="black" stroke="black" points="663.5,-168.79 667,-178.79 670.5,-168.79 663.5,-168.79"/>
</g>
<!-- UtilsModule  -->
<g id="node14" class="node">
<title>UtilsModule </title>
<polygon fill="#fb8072" stroke="black" points="584.27,-214.8 493.73,-214.8 493.73,-178.8 584.27,-178.8 584.27,-214.8"/>
<text text-anchor="middle" x="539" y="-192.6" font-family="Times,serif" font-size="14.00">UtilsModule </text>
</g>
<!-- ConfiguratorModule&#45;&gt;UtilsModule  -->
<g id="edge13" class="edge">
<title>ConfiguratorModule&#45;&gt;UtilsModule </title>
<path fill="none" stroke="black" stroke-dasharray="5,2" d="M600.89,-143.8C578.11,-143.8 558.21,-143.8 558.21,-143.8 558.21,-143.8 558.21,-168.56 558.21,-168.56"/>
<polygon fill="black" stroke="black" points="554.71,-168.56 558.21,-178.56 561.71,-168.56 554.71,-168.56"/>
</g>
<!-- SvgIconsModule -->
<g id="node10" class="node">
<title>SvgIconsModule</title>
<polygon fill="#8dd3c7" stroke="black" points="239.65,-84.8 236.65,-88.8 215.65,-88.8 212.65,-84.8 128.35,-84.8 128.35,-48.8 239.65,-48.8 239.65,-84.8"/>
<text text-anchor="middle" x="184" y="-62.6" font-family="Times,serif" font-size="14.00">SvgIconsModule</text>
</g>
<!-- SvgIconsModule&#45;&gt;ConfiguratorModule -->
<g id="edge9" class="edge">
<title>SvgIconsModule&#45;&gt;ConfiguratorModule</title>
<path fill="none" stroke="black" d="M184,-84.91C184,-104.14 184,-131.8 184,-131.8 184,-131.8 591.11,-131.8 591.11,-131.8"/>
<polygon fill="black" stroke="black" points="591.11,-135.3 601.11,-131.8 591.11,-128.3 591.11,-135.3"/>
</g>
<!-- UtilsModule -->
<g id="node11" class="node">
<title>UtilsModule</title>
<polygon fill="#8dd3c7" stroke="black" points="110.27,-84.8 107.27,-88.8 86.27,-88.8 83.27,-84.8 23.73,-84.8 23.73,-48.8 110.27,-48.8 110.27,-84.8"/>
<text text-anchor="middle" x="67" y="-62.6" font-family="Times,serif" font-size="14.00">UtilsModule</text>
</g>
<!-- UtilsModule&#45;&gt;ConfiguratorModule -->
<g id="edge10" class="edge">
<title>UtilsModule&#45;&gt;ConfiguratorModule</title>
<path fill="none" stroke="black" d="M67,-85.08C67,-106.12 67,-137.8 67,-137.8 67,-137.8 591.07,-137.8 591.07,-137.8"/>
<polygon fill="black" stroke="black" points="591.07,-141.3 601.07,-137.8 591.07,-134.3 591.07,-141.3"/>
</g>
</g>
</svg>
