<?xml version="1.0" encoding="UTF-8" standalone="no"?>
<!DOCTYPE svg PUBLIC "-//W3C//DTD SVG 1.1//EN"
 "http://www.w3.org/Graphics/SVG/1.1/DTD/svg11.dtd">
<!-- Generated by graphviz version 2.47.3 (20210619.1520)
 -->
<!-- Title: dependencies Pages: 1 -->
<svg width="202pt" height="247pt"
 viewBox="0.00 0.00 202.00 246.80" xmlns="http://www.w3.org/2000/svg" xmlns:xlink="http://www.w3.org/1999/xlink">
<g id="graph0" class="graph" transform="scale(1 1) rotate(0) translate(4 242.8)">
<title>dependencies</title>
<polygon fill="white" stroke="transparent" points="-4,4 -4,-242.8 198,-242.8 198,4 -4,4"/>
<text text-anchor="middle" x="97" y="-8.2" font-family="sans-serif" font-size="14.00">dependencies</text>
<g id="clust1" class="cluster">
<title>cluster_ConfigurableModule</title>
<polygon fill="none" stroke="black" stroke-dasharray="1,5" points="8,-32.8 8,-230.8 186,-230.8 186,-32.8 8,-32.8"/>
</g>
<g id="clust5" class="cluster">
<title>cluster_ConfigurableModule_exports</title>
<polygon fill="none" stroke="black" points="16,-170.8 16,-222.8 178,-222.8 178,-170.8 16,-170.8"/>
</g>
<g id="clust2" class="cluster">
<title>cluster_ConfigurableModule_declarations</title>
<polygon fill="none" stroke="black" points="18,-40.8 18,-92.8 176,-92.8 176,-40.8 18,-40.8"/>
</g>
<!-- ConfigurableDirective -->
<g id="node1" class="node">
<title>ConfigurableDirective</title>
<polygon fill="#ffffb3" stroke="black" points="167.95,-84.8 26.05,-84.8 26.05,-48.8 167.95,-48.8 167.95,-84.8"/>
<text text-anchor="middle" x="97" y="-62.6" font-family="Times,serif" font-size="14.00">ConfigurableDirective</text>
</g>
<!-- ConfigurableModule -->
<g id="node2" class="node">
<title>ConfigurableModule</title>
<polygon fill="#8dd3c7" stroke="black" points="163.92,-149.8 160.92,-153.8 139.92,-153.8 136.92,-149.8 30.08,-149.8 30.08,-113.8 163.92,-113.8 163.92,-149.8"/>
<text text-anchor="middle" x="97" y="-127.6" font-family="Times,serif" font-size="14.00">ConfigurableModule</text>
</g>
<!-- ConfigurableDirective&#45;&gt;ConfigurableModule -->
<g id="edge1" class="edge">
<title>ConfigurableDirective&#45;&gt;ConfigurableModule</title>
<path fill="none" stroke="black" d="M97,-84.91C97,-84.91 97,-103.79 97,-103.79"/>
<polygon fill="black" stroke="black" points="93.5,-103.79 97,-113.79 100.5,-103.79 93.5,-103.79"/>
</g>
<!-- ConfigurableDirective  -->
<g id="node3" class="node">
<title>ConfigurableDirective </title>
<polygon fill="#fb8072" stroke="black" points="169.95,-214.8 24.05,-214.8 24.05,-178.8 169.95,-178.8 169.95,-214.8"/>
<text text-anchor="middle" x="97" y="-192.6" font-family="Times,serif" font-size="14.00">ConfigurableDirective </text>
</g>
<!-- ConfigurableModule&#45;&gt;ConfigurableDirective  -->
<g id="edge2" class="edge">
<title>ConfigurableModule&#45;&gt;ConfigurableDirective </title>
<path fill="none" stroke="black" stroke-dasharray="5,2" d="M97,-149.91C97,-149.91 97,-168.79 97,-168.79"/>
<polygon fill="black" stroke="black" points="93.5,-168.79 97,-178.79 100.5,-168.79 93.5,-168.79"/>
</g>
</g>
</svg>
