<?xml version="1.0" encoding="UTF-8" standalone="no"?>
<!DOCTYPE svg PUBLIC "-//W3C//DTD SVG 1.1//EN"
 "http://www.w3.org/Graphics/SVG/1.1/DTD/svg11.dtd">
<!-- Generated by graphviz version 2.47.3 (20210619.1520)
 -->
<!-- Title: dependencies Pages: 1 -->
<svg width="1050pt" height="247pt"
 viewBox="0.00 0.00 1050.00 246.80" xmlns="http://www.w3.org/2000/svg" xmlns:xlink="http://www.w3.org/1999/xlink">
<g id="graph0" class="graph" transform="scale(1 1) rotate(0) translate(4 242.8)">
<title>dependencies</title>
<polygon fill="white" stroke="transparent" points="-4,4 -4,-242.8 1046,-242.8 1046,4 -4,4"/>
<text text-anchor="middle" x="521" y="-8.2" font-family="sans-serif" font-size="14.00">dependencies</text>
<g id="clust1" class="cluster">
<title>cluster_UtilsModule</title>
<polygon fill="none" stroke="black" stroke-dasharray="1,5" points="8,-32.8 8,-230.8 1034,-230.8 1034,-32.8 8,-32.8"/>
</g>
<g id="clust2" class="cluster">
<title>cluster_UtilsModule_declarations</title>
<polygon fill="none" stroke="black" points="29,-40.8 29,-92.8 1017,-92.8 1017,-40.8 29,-40.8"/>
</g>
<g id="clust10" class="cluster">
<title>cluster_UtilsModule_exports</title>
<polygon fill="none" stroke="black" points="16,-170.8 16,-222.8 1026,-222.8 1026,-170.8 16,-170.8"/>
</g>
<!-- AutocompleteComponent -->
<g id="node1" class="node">
<title>AutocompleteComponent</title>
<polygon fill="#ffffb3" stroke="black" points="1009.15,-84.8 848.85,-84.8 848.85,-48.8 1009.15,-48.8 1009.15,-84.8"/>
<text text-anchor="middle" x="929" y="-62.6" font-family="Times,serif" font-size="14.00">AutocompleteComponent</text>
</g>
<!-- UtilsModule -->
<g id="node7" class="node">
<title>UtilsModule</title>
<polygon fill="#8dd3c7" stroke="black" points="419.27,-149.8 416.27,-153.8 395.27,-153.8 392.27,-149.8 332.73,-149.8 332.73,-113.8 419.27,-113.8 419.27,-149.8"/>
<text text-anchor="middle" x="376" y="-127.6" font-family="Times,serif" font-size="14.00">UtilsModule</text>
</g>
<!-- AutocompleteComponent&#45;&gt;UtilsModule -->
<g id="edge1" class="edge">
<title>AutocompleteComponent&#45;&gt;UtilsModule</title>
<path fill="none" stroke="black" d="M957.52,-85.02C957.52,-103.63 957.52,-129.8 957.52,-129.8 957.52,-129.8 429.71,-129.8 429.71,-129.8"/>
<polygon fill="black" stroke="black" points="429.71,-126.3 419.71,-129.8 429.71,-133.3 429.71,-126.3"/>
</g>
<!-- ModalComponent -->
<g id="node2" class="node">
<title>ModalComponent</title>
<polygon fill="#ffffb3" stroke="black" points="830.88,-84.8 713.12,-84.8 713.12,-48.8 830.88,-48.8 830.88,-84.8"/>
<text text-anchor="middle" x="772" y="-62.6" font-family="Times,serif" font-size="14.00">ModalComponent</text>
</g>
<!-- ModalComponent&#45;&gt;UtilsModule -->
<g id="edge2" class="edge">
<title>ModalComponent&#45;&gt;UtilsModule</title>
<path fill="none" stroke="black" d="M792.06,-84.83C792.06,-101.86 792.06,-124.8 792.06,-124.8 792.06,-124.8 429.35,-124.8 429.35,-124.8"/>
<polygon fill="black" stroke="black" points="429.35,-121.3 419.35,-124.8 429.35,-128.3 429.35,-121.3"/>
</g>
<!-- NgModelChangeDebouncedDirective -->
<g id="node3" class="node">
<title>NgModelChangeDebouncedDirective</title>
<polygon fill="#ffffb3" stroke="black" points="695.26,-84.8 466.74,-84.8 466.74,-48.8 695.26,-48.8 695.26,-84.8"/>
<text text-anchor="middle" x="581" y="-62.6" font-family="Times,serif" font-size="14.00">NgModelChangeDebouncedDirective</text>
</g>
<!-- NgModelChangeDebouncedDirective&#45;&gt;UtilsModule -->
<g id="edge3" class="edge">
<title>NgModelChangeDebouncedDirective&#45;&gt;UtilsModule</title>
<path fill="none" stroke="black" d="M542.96,-85.04C542.96,-100.37 542.96,-119.8 542.96,-119.8 542.96,-119.8 429.43,-119.8 429.43,-119.8"/>
<polygon fill="black" stroke="black" points="429.43,-116.3 419.43,-119.8 429.43,-123.3 429.43,-116.3"/>
</g>
<!-- TemplateNameDirective -->
<g id="node4" class="node">
<title>TemplateNameDirective</title>
<polygon fill="#ffffb3" stroke="black" points="449.38,-84.8 294.62,-84.8 294.62,-48.8 449.38,-48.8 449.38,-84.8"/>
<text text-anchor="middle" x="372" y="-62.6" font-family="Times,serif" font-size="14.00">TemplateNameDirective</text>
</g>
<!-- TemplateNameDirective&#45;&gt;UtilsModule -->
<g id="edge4" class="edge">
<title>TemplateNameDirective&#45;&gt;UtilsModule</title>
<path fill="none" stroke="black" d="M376,-84.91C376,-84.91 376,-103.79 376,-103.79"/>
<polygon fill="black" stroke="black" points="372.5,-103.79 376,-113.79 379.5,-103.79 372.5,-103.79"/>
</g>
<!-- ToastComponent -->
<g id="node5" class="node">
<title>ToastComponent</title>
<polygon fill="#ffffb3" stroke="black" points="277.44,-84.8 164.56,-84.8 164.56,-48.8 277.44,-48.8 277.44,-84.8"/>
<text text-anchor="middle" x="221" y="-62.6" font-family="Times,serif" font-size="14.00">ToastComponent</text>
</g>
<!-- ToastComponent&#45;&gt;UtilsModule -->
<g id="edge5" class="edge">
<title>ToastComponent&#45;&gt;UtilsModule</title>
<path fill="none" stroke="black" d="M273.59,-84.81C273.59,-100.85 273.59,-121.8 273.59,-121.8 273.59,-121.8 322.57,-121.8 322.57,-121.8"/>
<polygon fill="black" stroke="black" points="322.57,-125.3 332.57,-121.8 322.57,-118.3 322.57,-125.3"/>
</g>
<!-- TooltipDirective -->
<g id="node6" class="node">
<title>TooltipDirective</title>
<polygon fill="#ffffb3" stroke="black" points="146.81,-84.8 37.19,-84.8 37.19,-48.8 146.81,-48.8 146.81,-84.8"/>
<text text-anchor="middle" x="92" y="-62.6" font-family="Times,serif" font-size="14.00">TooltipDirective</text>
</g>
<!-- TooltipDirective&#45;&gt;UtilsModule -->
<g id="edge6" class="edge">
<title>TooltipDirective&#45;&gt;UtilsModule</title>
<path fill="none" stroke="black" d="M141.53,-85.07C141.53,-103.36 141.53,-128.8 141.53,-128.8 141.53,-128.8 322.72,-128.8 322.72,-128.8"/>
<polygon fill="black" stroke="black" points="322.72,-132.3 332.72,-128.8 322.72,-125.3 322.72,-132.3"/>
</g>
<!-- AutocompleteComponent  -->
<g id="node8" class="node">
<title>AutocompleteComponent </title>
<polygon fill="#fb8072" stroke="black" points="1018.15,-214.8 853.85,-214.8 853.85,-178.8 1018.15,-178.8 1018.15,-214.8"/>
<text text-anchor="middle" x="936" y="-192.6" font-family="Times,serif" font-size="14.00">AutocompleteComponent </text>
</g>
<!-- UtilsModule&#45;&gt;AutocompleteComponent  -->
<g id="edge7" class="edge">
<title>UtilsModule&#45;&gt;AutocompleteComponent </title>
<path fill="none" stroke="black" stroke-dasharray="5,2" d="M419.35,-134.8C545.86,-134.8 905.73,-134.8 905.73,-134.8 905.73,-134.8 905.73,-168.53 905.73,-168.53"/>
<polygon fill="black" stroke="black" points="902.23,-168.53 905.73,-178.53 909.23,-168.53 902.23,-168.53"/>
</g>
<!-- ModalComponent  -->
<g id="node9" class="node">
<title>ModalComponent </title>
<polygon fill="#fb8072" stroke="black" points="835.88,-214.8 714.12,-214.8 714.12,-178.8 835.88,-178.8 835.88,-214.8"/>
<text text-anchor="middle" x="775" y="-192.6" font-family="Times,serif" font-size="14.00">ModalComponent </text>
</g>
<!-- UtilsModule&#45;&gt;ModalComponent  -->
<g id="edge8" class="edge">
<title>UtilsModule&#45;&gt;ModalComponent </title>
<path fill="none" stroke="black" stroke-dasharray="5,2" d="M419.64,-139.8C518.92,-139.8 753.19,-139.8 753.19,-139.8 753.19,-139.8 753.19,-168.76 753.19,-168.76"/>
<polygon fill="black" stroke="black" points="749.69,-168.76 753.19,-178.76 756.69,-168.76 749.69,-168.76"/>
</g>
<!-- NgModelChangeDebouncedDirective  -->
<g id="node10" class="node">
<title>NgModelChangeDebouncedDirective </title>
<polygon fill="#fb8072" stroke="black" points="695.76,-214.8 464.24,-214.8 464.24,-178.8 695.76,-178.8 695.76,-214.8"/>
<text text-anchor="middle" x="580" y="-192.6" font-family="Times,serif" font-size="14.00">NgModelChangeDebouncedDirective </text>
</g>
<!-- UtilsModule&#45;&gt;NgModelChangeDebouncedDirective  -->
<g id="edge9" class="edge">
<title>UtilsModule&#45;&gt;NgModelChangeDebouncedDirective </title>
<path fill="none" stroke="black" stroke-dasharray="5,2" d="M419.45,-144.8C489.36,-144.8 619.04,-144.8 619.04,-144.8 619.04,-144.8 619.04,-168.61 619.04,-168.61"/>
<polygon fill="black" stroke="black" points="615.54,-168.61 619.04,-178.61 622.54,-168.61 615.54,-168.61"/>
</g>
<!-- TemplateNameDirective  -->
<g id="node11" class="node">
<title>TemplateNameDirective </title>
<polygon fill="#fb8072" stroke="black" points="445.88,-214.8 288.12,-214.8 288.12,-178.8 445.88,-178.8 445.88,-214.8"/>
<text text-anchor="middle" x="367" y="-192.6" font-family="Times,serif" font-size="14.00">TemplateNameDirective </text>
</g>
<!-- UtilsModule&#45;&gt;TemplateNameDirective  -->
<g id="edge10" class="edge">
<title>UtilsModule&#45;&gt;TemplateNameDirective </title>
<path fill="none" stroke="black" stroke-dasharray="5,2" d="M376,-149.91C376,-149.91 376,-168.79 376,-168.79"/>
<polygon fill="black" stroke="black" points="372.5,-168.79 376,-178.79 379.5,-168.79 372.5,-168.79"/>
</g>
<!-- ToastComponent  -->
<g id="node12" class="node">
<title>ToastComponent </title>
<polygon fill="#fb8072" stroke="black" points="269.93,-214.8 154.07,-214.8 154.07,-178.8 269.93,-178.8 269.93,-214.8"/>
<text text-anchor="middle" x="212" y="-192.6" font-family="Times,serif" font-size="14.00">ToastComponent </text>
</g>
<!-- UtilsModule&#45;&gt;ToastComponent  -->
<g id="edge11" class="edge">
<title>UtilsModule&#45;&gt;ToastComponent </title>
<path fill="none" stroke="black" stroke-dasharray="5,2" d="M332.66,-142.8C285.69,-142.8 217.38,-142.8 217.38,-142.8 217.38,-142.8 217.38,-168.52 217.38,-168.52"/>
<polygon fill="black" stroke="black" points="213.88,-168.52 217.38,-178.52 220.88,-168.52 213.88,-168.52"/>
</g>
<!-- TooltipDirective  -->
<g id="node13" class="node">
<title>TooltipDirective </title>
<polygon fill="#fb8072" stroke="black" points="136.31,-214.8 23.69,-214.8 23.69,-178.8 136.31,-178.8 136.31,-214.8"/>
<text text-anchor="middle" x="80" y="-192.6" font-family="Times,serif" font-size="14.00">TooltipDirective </text>
</g>
<!-- UtilsModule&#45;&gt;TooltipDirective  -->
<g id="edge12" class="edge">
<title>UtilsModule&#45;&gt;TooltipDirective </title>
<path fill="none" stroke="black" stroke-dasharray="5,2" d="M332.72,-135.8C252.06,-135.8 86.88,-135.8 86.88,-135.8 86.88,-135.8 86.88,-168.5 86.88,-168.5"/>
<polygon fill="black" stroke="black" points="83.38,-168.5 86.88,-178.5 90.38,-168.5 83.38,-168.5"/>
</g>
</g>
</svg>
