<?xml version="1.0" encoding="UTF-8" standalone="no"?>
<!DOCTYPE svg PUBLIC "-//W3C//DTD SVG 1.1//EN"
 "http://www.w3.org/Graphics/SVG/1.1/DTD/svg11.dtd">
<!-- Generated by graphviz version 2.47.3 (20210619.1520)
 -->
<!-- Title: dependencies Pages: 1 -->
<svg width="4462pt" height="321pt"
 viewBox="0.00 0.00 4462.00 320.80" xmlns="http://www.w3.org/2000/svg" xmlns:xlink="http://www.w3.org/1999/xlink">
<g id="graph0" class="graph" transform="scale(1 1) rotate(0) translate(4 316.8)">
<title>dependencies</title>
<polygon fill="white" stroke="transparent" points="-4,4 -4,-316.8 4458,-316.8 4458,4 -4,4"/>
<text text-anchor="middle" x="2227" y="-8.2" font-family="sans-serif" font-size="14.00">dependencies</text>
<g id="clust1" class="cluster">
<title>cluster_ConfigurableModule</title>
<polygon fill="none" stroke="black" stroke-dasharray="1,5" points="8,-32.8 8,-236.8 186,-236.8 186,-32.8 8,-32.8"/>
</g>
<g id="clust2" class="cluster">
<title>cluster_ConfigurableModule_declarations</title>
<polygon fill="none" stroke="black" points="19,-40.8 19,-92.8 177,-92.8 177,-40.8 19,-40.8"/>
</g>
<g id="clust5" class="cluster">
<title>cluster_ConfigurableModule_exports</title>
<polygon fill="none" stroke="black" points="16,-176.8 16,-228.8 178,-228.8 178,-176.8 16,-176.8"/>
</g>
<g id="clust8" class="cluster">
<title>cluster_ConfiguratorModule</title>
<polygon fill="none" stroke="black" stroke-dasharray="1,5" points="583,-100.8 583,-304.8 2092,-304.8 2092,-100.8 583,-100.8"/>
</g>
<g id="clust9" class="cluster">
<title>cluster_ConfiguratorModule_declarations</title>
<polygon fill="none" stroke="black" points="591,-108.8 591,-160.8 1844,-160.8 1844,-108.8 591,-108.8"/>
</g>
<g id="clust18" class="cluster">
<title>cluster_ConfiguratorModule_imports</title>
<polygon fill="none" stroke="black" points="1852,-108.8 1852,-160.8 2084,-160.8 2084,-108.8 1852,-108.8"/>
</g>
<g id="clust19" class="cluster">
<title>cluster_ConfiguratorModule_exports</title>
<polygon fill="none" stroke="black" points="1063,-244.8 1063,-296.8 1492,-296.8 1492,-244.8 1063,-244.8"/>
</g>
<g id="clust22" class="cluster">
<title>cluster_DynamicViewsModule</title>
<polygon fill="none" stroke="black" stroke-dasharray="1,5" points="194,-100.8 194,-304.8 575,-304.8 575,-100.8 194,-100.8"/>
</g>
<g id="clust23" class="cluster">
<title>cluster_DynamicViewsModule_declarations</title>
<polygon fill="none" stroke="black" points="202,-108.8 202,-160.8 567,-160.8 567,-108.8 202,-108.8"/>
</g>
<g id="clust28" class="cluster">
<title>cluster_DynamicViewsModule_exports</title>
<polygon fill="none" stroke="black" points="315,-244.8 315,-296.8 563,-296.8 563,-244.8 315,-244.8"/>
</g>
<g id="clust31" class="cluster">
<title>cluster_SvgIconsModule</title>
<polygon fill="none" stroke="black" stroke-dasharray="1,5" points="2100,-168.8 2100,-236.8 2416,-236.8 2416,-168.8 2100,-168.8"/>
</g>
<g id="clust32" class="cluster">
<title>cluster_SvgIconsModule_declarations</title>
<polygon fill="none" stroke="black" points="2264,-176.8 2264,-228.8 2408,-228.8 2408,-176.8 2264,-176.8"/>
</g>
<g id="clust35" class="cluster">
<title>cluster_SvgIconsModule_exports</title>
<polygon fill="none" stroke="black" points="2108,-176.8 2108,-228.8 2256,-228.8 2256,-176.8 2108,-176.8"/>
</g>
<g id="clust38" class="cluster">
<title>cluster_UtilsModule</title>
<polygon fill="none" stroke="black" stroke-dasharray="1,5" points="2424,-168.8 2424,-236.8 4446,-236.8 4446,-168.8 2424,-168.8"/>
</g>
<g id="clust39" class="cluster">
<title>cluster_UtilsModule_declarations</title>
<polygon fill="none" stroke="black" points="3450,-176.8 3450,-228.8 4438,-228.8 4438,-176.8 3450,-176.8"/>
</g>
<g id="clust47" class="cluster">
<title>cluster_UtilsModule_exports</title>
<polygon fill="none" stroke="black" points="2432,-176.8 2432,-228.8 3442,-228.8 3442,-176.8 2432,-176.8"/>
</g>
<!-- ConfigurableDirective -->
<g id="node1" class="node">
<title>ConfigurableDirective</title>
<polygon fill="#ffffb3" stroke="black" points="168.95,-84.8 27.05,-84.8 27.05,-48.8 168.95,-48.8 168.95,-84.8"/>
<text text-anchor="middle" x="98" y="-62.6" font-family="Times,serif" font-size="14.00">ConfigurableDirective</text>
</g>
<!-- ConfigurableModule -->
<g id="node2" class="node">
<title>ConfigurableModule</title>
<polygon fill="#8dd3c7" stroke="black" points="164.92,-152.8 161.92,-156.8 140.92,-156.8 137.92,-152.8 31.08,-152.8 31.08,-116.8 164.92,-116.8 164.92,-152.8"/>
<text text-anchor="middle" x="98" y="-130.6" font-family="Times,serif" font-size="14.00">ConfigurableModule</text>
</g>
<!-- ConfigurableDirective&#45;&gt;ConfigurableModule -->
<g id="edge1" class="edge">
<title>ConfigurableDirective&#45;&gt;ConfigurableModule</title>
<path fill="none" stroke="black" d="M98,-85.02C98,-85.02 98,-106.53 98,-106.53"/>
<polygon fill="black" stroke="black" points="94.5,-106.53 98,-116.53 101.5,-106.53 94.5,-106.53"/>
</g>
<!-- ConfigurableDirective  -->
<g id="node3" class="node">
<title>ConfigurableDirective </title>
<polygon fill="#fb8072" stroke="black" points="169.95,-220.8 24.05,-220.8 24.05,-184.8 169.95,-184.8 169.95,-220.8"/>
<text text-anchor="middle" x="97" y="-198.6" font-family="Times,serif" font-size="14.00">ConfigurableDirective </text>
</g>
<!-- ConfigurableModule&#45;&gt;ConfigurableDirective  -->
<g id="edge2" class="edge">
<title>ConfigurableModule&#45;&gt;ConfigurableDirective </title>
<path fill="none" stroke="black" stroke-dasharray="5,2" d="M98,-153.02C98,-153.02 98,-174.53 98,-174.53"/>
<polygon fill="black" stroke="black" points="94.5,-174.53 98,-184.53 101.5,-174.53 94.5,-174.53"/>
</g>
<!-- DynamicViewsModule -->
<g id="node21" class="node">
<title>DynamicViewsModule</title>
<polygon fill="#8dd3c7" stroke="black" points="567.13,-220.8 564.13,-224.8 543.13,-224.8 540.13,-220.8 420.87,-220.8 420.87,-184.8 567.13,-184.8 567.13,-220.8"/>
<text text-anchor="middle" x="494" y="-198.6" font-family="Times,serif" font-size="14.00">DynamicViewsModule</text>
</g>
<!-- ConfigurableModule&#45;&gt;DynamicViewsModule -->
<g id="edge19" class="edge">
<title>ConfigurableModule&#45;&gt;DynamicViewsModule</title>
<path fill="none" stroke="black" d="M165.06,-134.8C179.03,-134.8 189.62,-134.8 189.62,-134.8 189.62,-134.8 189.62,-208.8 189.62,-208.8 189.62,-208.8 410.7,-208.8 410.7,-208.8"/>
<polygon fill="black" stroke="black" points="410.71,-212.3 420.7,-208.8 410.7,-205.3 410.71,-212.3"/>
</g>
<!-- ClassEditorComponent -->
<g id="node4" class="node">
<title>ClassEditorComponent</title>
<polygon fill="#ffffb3" stroke="black" points="1266.16,-152.8 1119.84,-152.8 1119.84,-116.8 1266.16,-116.8 1266.16,-152.8"/>
<text text-anchor="middle" x="1193" y="-130.6" font-family="Times,serif" font-size="14.00">ClassEditorComponent</text>
</g>
<!-- ConfiguratorModule -->
<g id="node12" class="node">
<title>ConfiguratorModule</title>
<polygon fill="#8dd3c7" stroke="black" points="1403.86,-220.8 1400.86,-224.8 1379.86,-224.8 1376.86,-220.8 1272.14,-220.8 1272.14,-184.8 1403.86,-184.8 1403.86,-220.8"/>
<text text-anchor="middle" x="1338" y="-198.6" font-family="Times,serif" font-size="14.00">ConfiguratorModule</text>
</g>
<!-- ClassEditorComponent&#45;&gt;ConfiguratorModule -->
<g id="edge3" class="edge">
<title>ClassEditorComponent&#45;&gt;ConfiguratorModule</title>
<path fill="none" stroke="black" d="M1266.43,-134.8C1273.61,-134.8 1278.29,-134.8 1278.29,-134.8 1278.29,-134.8 1278.29,-174.58 1278.29,-174.58"/>
<polygon fill="black" stroke="black" points="1274.79,-174.58 1278.29,-184.58 1281.79,-174.58 1274.79,-174.58"/>
</g>
<!-- ConditionEditorComponent -->
<g id="node5" class="node">
<title>ConditionEditorComponent</title>
<polygon fill="#ffffb3" stroke="black" points="1102.34,-152.8 929.66,-152.8 929.66,-116.8 1102.34,-116.8 1102.34,-152.8"/>
<text text-anchor="middle" x="1016" y="-130.6" font-family="Times,serif" font-size="14.00">ConditionEditorComponent</text>
</g>
<!-- ConditionEditorComponent&#45;&gt;ConfiguratorModule -->
<g id="edge4" class="edge">
<title>ConditionEditorComponent&#45;&gt;ConfiguratorModule</title>
<path fill="none" stroke="black" d="M1086.52,-152.83C1086.52,-169.86 1086.52,-192.8 1086.52,-192.8 1086.52,-192.8 1261.93,-192.8 1261.93,-192.8"/>
<polygon fill="black" stroke="black" points="1261.93,-196.3 1271.93,-192.8 1261.93,-189.3 1261.93,-196.3"/>
</g>
<!-- ConfiguratorComponent -->
<g id="node6" class="node">
<title>ConfiguratorComponent</title>
<polygon fill="#ffffb3" stroke="black" points="911.65,-152.8 758.35,-152.8 758.35,-116.8 911.65,-116.8 911.65,-152.8"/>
<text text-anchor="middle" x="835" y="-130.6" font-family="Times,serif" font-size="14.00">ConfiguratorComponent</text>
</g>
<!-- ConfiguratorComponent&#45;&gt;ConfiguratorModule -->
<g id="edge5" class="edge">
<title>ConfiguratorComponent&#45;&gt;ConfiguratorModule</title>
<path fill="none" stroke="black" d="M835,-152.91C835,-172.14 835,-199.8 835,-199.8 835,-199.8 1261.98,-199.8 1261.98,-199.8"/>
<polygon fill="black" stroke="black" points="1261.98,-203.3 1271.98,-199.8 1261.98,-196.3 1261.98,-203.3"/>
</g>
<!-- FlexEditorComponent -->
<g id="node7" class="node">
<title>FlexEditorComponent</title>
<polygon fill="#ffffb3" stroke="black" points="740.71,-152.8 599.29,-152.8 599.29,-116.8 740.71,-116.8 740.71,-152.8"/>
<text text-anchor="middle" x="670" y="-130.6" font-family="Times,serif" font-size="14.00">FlexEditorComponent</text>
</g>
<!-- FlexEditorComponent&#45;&gt;ConfiguratorModule -->
<g id="edge6" class="edge">
<title>FlexEditorComponent&#45;&gt;ConfiguratorModule</title>
<path fill="none" stroke="black" d="M670,-152.97C670,-174.3 670,-206.8 670,-206.8 670,-206.8 1262.12,-206.8 1262.12,-206.8"/>
<polygon fill="black" stroke="black" points="1262.12,-210.3 1272.12,-206.8 1262.12,-203.3 1262.12,-210.3"/>
</g>
<!-- HtmlEditorComponent -->
<g id="node8" class="node">
<title>HtmlEditorComponent</title>
<polygon fill="#ffffb3" stroke="black" points="1835.61,-152.8 1690.39,-152.8 1690.39,-116.8 1835.61,-116.8 1835.61,-152.8"/>
<text text-anchor="middle" x="1763" y="-130.6" font-family="Times,serif" font-size="14.00">HtmlEditorComponent</text>
</g>
<!-- HtmlEditorComponent&#45;&gt;ConfiguratorModule -->
<g id="edge7" class="edge">
<title>HtmlEditorComponent&#45;&gt;ConfiguratorModule</title>
<path fill="none" stroke="black" d="M1763,-153.07C1763,-171.36 1763,-196.8 1763,-196.8 1763,-196.8 1413.94,-196.8 1413.94,-196.8"/>
<polygon fill="black" stroke="black" points="1413.94,-193.3 1403.94,-196.8 1413.94,-200.3 1413.94,-193.3"/>
</g>
<!-- PaletteComponent -->
<g id="node9" class="node">
<title>PaletteComponent</title>
<polygon fill="#ffffb3" stroke="black" points="1672.93,-152.8 1553.07,-152.8 1553.07,-116.8 1672.93,-116.8 1672.93,-152.8"/>
<text text-anchor="middle" x="1613" y="-130.6" font-family="Times,serif" font-size="14.00">PaletteComponent</text>
</g>
<!-- PaletteComponent&#45;&gt;ConfiguratorModule -->
<g id="edge8" class="edge">
<title>PaletteComponent&#45;&gt;ConfiguratorModule</title>
<path fill="none" stroke="black" d="M1613,-152.83C1613,-169.2 1613,-190.8 1613,-190.8 1613,-190.8 1413.87,-190.8 1413.87,-190.8"/>
<polygon fill="black" stroke="black" points="1413.87,-187.3 1403.87,-190.8 1413.87,-194.3 1413.87,-187.3"/>
</g>
<!-- ToolbarComponent -->
<g id="node10" class="node">
<title>ToolbarComponent</title>
<polygon fill="#ffffb3" stroke="black" points="1534.65,-152.8 1409.35,-152.8 1409.35,-116.8 1534.65,-116.8 1534.65,-152.8"/>
<text text-anchor="middle" x="1472" y="-130.6" font-family="Times,serif" font-size="14.00">ToolbarComponent</text>
</g>
<!-- ToolbarComponent&#45;&gt;ConfiguratorModule -->
<g id="edge9" class="edge">
<title>ToolbarComponent&#45;&gt;ConfiguratorModule</title>
<path fill="none" stroke="black" d="M1409.32,-134.8C1402.35,-134.8 1397.71,-134.8 1397.71,-134.8 1397.71,-134.8 1397.71,-174.58 1397.71,-174.58"/>
<polygon fill="black" stroke="black" points="1394.21,-174.58 1397.71,-184.58 1401.21,-174.58 1394.21,-174.58"/>
</g>
<!-- TreeComponent -->
<g id="node11" class="node">
<title>TreeComponent</title>
<polygon fill="#ffffb3" stroke="black" points="1391.47,-152.8 1284.53,-152.8 1284.53,-116.8 1391.47,-116.8 1391.47,-152.8"/>
<text text-anchor="middle" x="1338" y="-130.6" font-family="Times,serif" font-size="14.00">TreeComponent</text>
</g>
<!-- TreeComponent&#45;&gt;ConfiguratorModule -->
<g id="edge10" class="edge">
<title>TreeComponent&#45;&gt;ConfiguratorModule</title>
<path fill="none" stroke="black" d="M1338,-153.02C1338,-153.02 1338,-174.53 1338,-174.53"/>
<polygon fill="black" stroke="black" points="1334.5,-174.53 1338,-184.53 1341.5,-174.53 1334.5,-174.53"/>
</g>
<!-- ConfiguratorComponent  -->
<g id="node15" class="node">
<title>ConfiguratorComponent </title>
<polygon fill="#fb8072" stroke="black" points="1336.65,-288.8 1179.35,-288.8 1179.35,-252.8 1336.65,-252.8 1336.65,-288.8"/>
<text text-anchor="middle" x="1258" y="-266.6" font-family="Times,serif" font-size="14.00">ConfiguratorComponent </text>
</g>
<!-- ConfiguratorModule&#45;&gt;ConfiguratorComponent  -->
<g id="edge13" class="edge">
<title>ConfiguratorModule&#45;&gt;ConfiguratorComponent </title>
<path fill="none" stroke="black" stroke-dasharray="5,2" d="M1304.32,-221.02C1304.32,-221.02 1304.32,-242.53 1304.32,-242.53"/>
<polygon fill="black" stroke="black" points="1300.82,-242.53 1304.32,-252.53 1307.82,-242.53 1300.82,-242.53"/>
</g>
<!-- ToolbarComponent  -->
<g id="node16" class="node">
<title>ToolbarComponent </title>
<polygon fill="#fb8072" stroke="black" points="1483.65,-288.8 1354.35,-288.8 1354.35,-252.8 1483.65,-252.8 1483.65,-288.8"/>
<text text-anchor="middle" x="1419" y="-266.6" font-family="Times,serif" font-size="14.00">ToolbarComponent </text>
</g>
<!-- ConfiguratorModule&#45;&gt;ToolbarComponent  -->
<g id="edge14" class="edge">
<title>ConfiguratorModule&#45;&gt;ToolbarComponent </title>
<path fill="none" stroke="black" stroke-dasharray="5,2" d="M1379.18,-221.02C1379.18,-221.02 1379.18,-242.53 1379.18,-242.53"/>
<polygon fill="black" stroke="black" points="1375.68,-242.53 1379.18,-252.53 1382.68,-242.53 1375.68,-242.53"/>
</g>
<!-- UtilsModule  -->
<g id="node17" class="node">
<title>UtilsModule </title>
<polygon fill="#fb8072" stroke="black" points="1161.27,-288.8 1070.73,-288.8 1070.73,-252.8 1161.27,-252.8 1161.27,-288.8"/>
<text text-anchor="middle" x="1116" y="-266.6" font-family="Times,serif" font-size="14.00">UtilsModule </text>
</g>
<!-- ConfiguratorModule&#45;&gt;UtilsModule  -->
<g id="edge15" class="edge">
<title>ConfiguratorModule&#45;&gt;UtilsModule </title>
<path fill="none" stroke="black" stroke-dasharray="5,2" d="M1271.93,-213.8C1214.49,-213.8 1140.4,-213.8 1140.4,-213.8 1140.4,-213.8 1140.4,-242.76 1140.4,-242.76"/>
<polygon fill="black" stroke="black" points="1136.9,-242.76 1140.4,-252.76 1143.9,-242.76 1136.9,-242.76"/>
</g>
<!-- SvgIconsModule -->
<g id="node13" class="node">
<title>SvgIconsModule</title>
<polygon fill="#8dd3c7" stroke="black" points="1971.65,-152.8 1968.65,-156.8 1947.65,-156.8 1944.65,-152.8 1860.35,-152.8 1860.35,-116.8 1971.65,-116.8 1971.65,-152.8"/>
<text text-anchor="middle" x="1916" y="-130.6" font-family="Times,serif" font-size="14.00">SvgIconsModule</text>
</g>
<!-- SvgIconsModule&#45;&gt;ConfiguratorModule -->
<g id="edge11" class="edge">
<title>SvgIconsModule&#45;&gt;ConfiguratorModule</title>
<path fill="none" stroke="black" d="M1904.83,-153.02C1904.83,-173.17 1904.83,-202.8 1904.83,-202.8 1904.83,-202.8 1414.13,-202.8 1414.13,-202.8"/>
<polygon fill="black" stroke="black" points="1414.13,-199.3 1404.13,-202.8 1414.13,-206.3 1414.13,-199.3"/>
</g>
<!-- SvgIconsModule&#45;&gt;DynamicViewsModule -->
<g id="edge20" class="edge">
<title>SvgIconsModule&#45;&gt;DynamicViewsModule</title>
<path fill="none" stroke="black" d="M1882.5,-152.86C1882.5,-157.29 1882.5,-160.8 1882.5,-160.8 1882.5,-160.8 561.8,-160.8 561.8,-160.8 561.8,-160.8 561.8,-174.74 561.8,-174.74"/>
<polygon fill="black" stroke="black" points="558.3,-174.74 561.8,-184.74 565.3,-174.74 558.3,-174.74"/>
</g>
<!-- SvgIconComponent  -->
<g id="node25" class="node">
<title>SvgIconComponent </title>
<polygon fill="#fb8072" stroke="black" points="2247.99,-220.8 2116.01,-220.8 2116.01,-184.8 2247.99,-184.8 2247.99,-220.8"/>
<text text-anchor="middle" x="2182" y="-198.6" font-family="Times,serif" font-size="14.00">SvgIconComponent </text>
</g>
<!-- SvgIconsModule&#45;&gt;SvgIconComponent  -->
<g id="edge26" class="edge">
<title>SvgIconsModule&#45;&gt;SvgIconComponent </title>
<path fill="none" stroke="black" stroke-dasharray="5,2" d="M1949.5,-152.95C1949.5,-176.56 1949.5,-214.8 1949.5,-214.8 1949.5,-214.8 2106,-214.8 2106,-214.8"/>
<polygon fill="black" stroke="black" points="2106,-218.3 2116,-214.8 2106,-211.3 2106,-218.3"/>
</g>
<!-- UtilsModule -->
<g id="node14" class="node">
<title>UtilsModule</title>
<polygon fill="#8dd3c7" stroke="black" points="2076.27,-152.8 2073.27,-156.8 2052.27,-156.8 2049.27,-152.8 1989.73,-152.8 1989.73,-116.8 2076.27,-116.8 2076.27,-152.8"/>
<text text-anchor="middle" x="2033" y="-130.6" font-family="Times,serif" font-size="14.00">UtilsModule</text>
</g>
<!-- UtilsModule&#45;&gt;ConfiguratorModule -->
<g id="edge12" class="edge">
<title>UtilsModule&#45;&gt;ConfiguratorModule</title>
<path fill="none" stroke="black" d="M2047.46,-153.09C2047.46,-175.01 2047.46,-208.8 2047.46,-208.8 2047.46,-208.8 1414.11,-208.8 1414.11,-208.8"/>
<polygon fill="black" stroke="black" points="1414.11,-205.3 1404.11,-208.8 1414.11,-212.3 1414.11,-205.3"/>
</g>
<!-- UtilsModule&#45;&gt;DynamicViewsModule -->
<g id="edge21" class="edge">
<title>UtilsModule&#45;&gt;DynamicViewsModule</title>
<path fill="none" stroke="black" d="M2018.54,-152.99C2018.54,-161.08 2018.54,-168.8 2018.54,-168.8 2018.54,-168.8 564.56,-168.8 564.56,-168.8 564.56,-168.8 564.56,-174.61 564.56,-174.61"/>
<polygon fill="black" stroke="black" points="561.06,-174.61 564.56,-184.61 568.06,-174.61 561.06,-174.61"/>
</g>
<!-- AutocompleteComponent  -->
<g id="node32" class="node">
<title>AutocompleteComponent </title>
<polygon fill="#fb8072" stroke="black" points="2994.15,-220.8 2829.85,-220.8 2829.85,-184.8 2994.15,-184.8 2994.15,-220.8"/>
<text text-anchor="middle" x="2912" y="-198.6" font-family="Times,serif" font-size="14.00">AutocompleteComponent </text>
</g>
<!-- UtilsModule&#45;&gt;AutocompleteComponent  -->
<g id="edge33" class="edge">
<title>UtilsModule&#45;&gt;AutocompleteComponent </title>
<path fill="none" stroke="black" stroke-dasharray="5,2" d="M2076.29,-144.8C2253.21,-144.8 2912,-144.8 2912,-144.8 2912,-144.8 2912,-174.77 2912,-174.77"/>
<polygon fill="black" stroke="black" points="2908.5,-174.77 2912,-184.77 2915.5,-174.77 2908.5,-174.77"/>
</g>
<!-- ModalComponent  -->
<g id="node33" class="node">
<title>ModalComponent </title>
<polygon fill="#fb8072" stroke="black" points="2811.88,-220.8 2690.12,-220.8 2690.12,-184.8 2811.88,-184.8 2811.88,-220.8"/>
<text text-anchor="middle" x="2751" y="-198.6" font-family="Times,serif" font-size="14.00">ModalComponent </text>
</g>
<!-- UtilsModule&#45;&gt;ModalComponent  -->
<g id="edge34" class="edge">
<title>UtilsModule&#45;&gt;ModalComponent </title>
<path fill="none" stroke="black" stroke-dasharray="5,2" d="M2076.3,-147.8C2231.53,-147.8 2751,-147.8 2751,-147.8 2751,-147.8 2751,-174.79 2751,-174.79"/>
<polygon fill="black" stroke="black" points="2747.5,-174.79 2751,-184.79 2754.5,-174.79 2747.5,-174.79"/>
</g>
<!-- NgModelChangeDebouncedDirective  -->
<g id="node34" class="node">
<title>NgModelChangeDebouncedDirective </title>
<polygon fill="#fb8072" stroke="black" points="2671.76,-220.8 2440.24,-220.8 2440.24,-184.8 2671.76,-184.8 2671.76,-220.8"/>
<text text-anchor="middle" x="2556" y="-198.6" font-family="Times,serif" font-size="14.00">NgModelChangeDebouncedDirective </text>
</g>
<!-- UtilsModule&#45;&gt;NgModelChangeDebouncedDirective  -->
<g id="edge35" class="edge">
<title>UtilsModule&#45;&gt;NgModelChangeDebouncedDirective </title>
<path fill="none" stroke="black" stroke-dasharray="5,2" d="M2076.69,-150.8C2202.39,-150.8 2556,-150.8 2556,-150.8 2556,-150.8 2556,-174.61 2556,-174.61"/>
<polygon fill="black" stroke="black" points="2552.5,-174.61 2556,-184.61 2559.5,-174.61 2552.5,-174.61"/>
</g>
<!-- TemplateNameDirective  -->
<g id="node35" class="node">
<title>TemplateNameDirective </title>
<polygon fill="#fb8072" stroke="black" points="3433.88,-220.8 3276.12,-220.8 3276.12,-184.8 3433.88,-184.8 3433.88,-220.8"/>
<text text-anchor="middle" x="3355" y="-198.6" font-family="Times,serif" font-size="14.00">TemplateNameDirective </text>
</g>
<!-- UtilsModule&#45;&gt;TemplateNameDirective  -->
<g id="edge36" class="edge">
<title>UtilsModule&#45;&gt;TemplateNameDirective </title>
<path fill="none" stroke="black" stroke-dasharray="5,2" d="M2076.61,-136.8C2305.22,-136.8 3355,-136.8 3355,-136.8 3355,-136.8 3355,-174.77 3355,-174.77"/>
<polygon fill="black" stroke="black" points="3351.5,-174.77 3355,-184.77 3358.5,-174.77 3351.5,-174.77"/>
</g>
<!-- ToastComponent  -->
<g id="node36" class="node">
<title>ToastComponent </title>
<polygon fill="#fb8072" stroke="black" points="3257.93,-220.8 3142.07,-220.8 3142.07,-184.8 3257.93,-184.8 3257.93,-220.8"/>
<text text-anchor="middle" x="3200" y="-198.6" font-family="Times,serif" font-size="14.00">ToastComponent </text>
</g>
<!-- UtilsModule&#45;&gt;ToastComponent  -->
<g id="edge37" class="edge">
<title>UtilsModule&#45;&gt;ToastComponent </title>
<path fill="none" stroke="black" stroke-dasharray="5,2" d="M2076.62,-139.8C2288.48,-139.8 3200,-139.8 3200,-139.8 3200,-139.8 3200,-174.58 3200,-174.58"/>
<polygon fill="black" stroke="black" points="3196.5,-174.58 3200,-184.58 3203.5,-174.58 3196.5,-174.58"/>
</g>
<!-- TooltipDirective  -->
<g id="node37" class="node">
<title>TooltipDirective </title>
<polygon fill="#fb8072" stroke="black" points="3124.31,-220.8 3011.69,-220.8 3011.69,-184.8 3124.31,-184.8 3124.31,-220.8"/>
<text text-anchor="middle" x="3068" y="-198.6" font-family="Times,serif" font-size="14.00">TooltipDirective </text>
</g>
<!-- UtilsModule&#45;&gt;TooltipDirective  -->
<g id="edge38" class="edge">
<title>UtilsModule&#45;&gt;TooltipDirective </title>
<path fill="none" stroke="black" stroke-dasharray="5,2" d="M2076.48,-141.8C2272.92,-141.8 3068,-141.8 3068,-141.8 3068,-141.8 3068,-174.5 3068,-174.5"/>
<polygon fill="black" stroke="black" points="3064.5,-174.5 3068,-184.5 3071.5,-174.5 3064.5,-174.5"/>
</g>
<!-- ConditionPipe -->
<g id="node18" class="node">
<title>ConditionPipe</title>
<polygon fill="#ffffb3" stroke="black" points="431.4,-152.8 334.6,-152.8 334.6,-116.8 431.4,-116.8 431.4,-152.8"/>
<text text-anchor="middle" x="383" y="-130.6" font-family="Times,serif" font-size="14.00">ConditionPipe</text>
</g>
<!-- ConditionPipe&#45;&gt;DynamicViewsModule -->
<g id="edge16" class="edge">
<title>ConditionPipe&#45;&gt;DynamicViewsModule</title>
<path fill="none" stroke="black" d="M426.07,-153.02C426.07,-153.02 426.07,-174.53 426.07,-174.53"/>
<polygon fill="black" stroke="black" points="422.57,-174.53 426.07,-184.53 429.57,-174.53 422.57,-174.53"/>
</g>
<!-- ItemComponent -->
<g id="node19" class="node">
<title>ItemComponent</title>
<polygon fill="#ffffb3" stroke="black" points="316.49,-152.8 209.51,-152.8 209.51,-116.8 316.49,-116.8 316.49,-152.8"/>
<text text-anchor="middle" x="263" y="-130.6" font-family="Times,serif" font-size="14.00">ItemComponent</text>
</g>
<!-- ItemComponent&#45;&gt;DynamicViewsModule -->
<g id="edge17" class="edge">
<title>ItemComponent&#45;&gt;DynamicViewsModule</title>
<path fill="none" stroke="black" d="M263,-153.07C263,-171.36 263,-196.8 263,-196.8 263,-196.8 410.59,-196.8 410.59,-196.8"/>
<polygon fill="black" stroke="black" points="410.59,-200.3 420.59,-196.8 410.59,-193.3 410.59,-200.3"/>
</g>
<!-- ZoneComponent -->
<g id="node20" class="node">
<title>ZoneComponent</title>
<polygon fill="#ffffb3" stroke="black" points="559.1,-152.8 448.9,-152.8 448.9,-116.8 559.1,-116.8 559.1,-152.8"/>
<text text-anchor="middle" x="504" y="-130.6" font-family="Times,serif" font-size="14.00">ZoneComponent</text>
</g>
<!-- ZoneComponent&#45;&gt;DynamicViewsModule -->
<g id="edge18" class="edge">
<title>ZoneComponent&#45;&gt;DynamicViewsModule</title>
<path fill="none" stroke="black" d="M504,-153.02C504,-153.02 504,-174.53 504,-174.53"/>
<polygon fill="black" stroke="black" points="500.5,-174.53 504,-184.53 507.5,-174.53 500.5,-174.53"/>
</g>
<!-- DynamicViewsModule&#45;&gt;UtilsModule  -->
<g id="edge23" class="edge">
<title>DynamicViewsModule&#45;&gt;UtilsModule </title>
<path fill="none" stroke="black" stroke-dasharray="5,2" d="M561.06,-221.02C561.06,-241.17 561.06,-270.8 561.06,-270.8 561.06,-270.8 1060.59,-270.8 1060.59,-270.8"/>
<polygon fill="black" stroke="black" points="1060.59,-274.3 1070.59,-270.8 1060.59,-267.3 1060.59,-274.3"/>
</g>
<!-- ConditionPipe  -->
<g id="node22" class="node">
<title>ConditionPipe </title>
<polygon fill="#fb8072" stroke="black" points="423.4,-288.8 322.6,-288.8 322.6,-252.8 423.4,-252.8 423.4,-288.8"/>
<text text-anchor="middle" x="373" y="-266.6" font-family="Times,serif" font-size="14.00">ConditionPipe </text>
</g>
<!-- DynamicViewsModule&#45;&gt;ConditionPipe  -->
<g id="edge22" class="edge">
<title>DynamicViewsModule&#45;&gt;ConditionPipe </title>
<path fill="none" stroke="black" stroke-dasharray="5,2" d="M432.2,-221.02C432.2,-241.17 432.2,-270.8 432.2,-270.8 432.2,-270.8 431.3,-270.8 431.3,-270.8"/>
<polygon fill="black" stroke="black" points="433.21,-267.3 423.21,-270.8 433.21,-274.3 433.21,-267.3"/>
</g>
<!-- ZoneComponent  -->
<g id="node23" class="node">
<title>ZoneComponent </title>
<polygon fill="#fb8072" stroke="black" points="554.6,-288.8 441.4,-288.8 441.4,-252.8 554.6,-252.8 554.6,-288.8"/>
<text text-anchor="middle" x="498" y="-266.6" font-family="Times,serif" font-size="14.00">ZoneComponent </text>
</g>
<!-- DynamicViewsModule&#45;&gt;ZoneComponent  -->
<g id="edge24" class="edge">
<title>DynamicViewsModule&#45;&gt;ZoneComponent </title>
<path fill="none" stroke="black" stroke-dasharray="5,2" d="M498,-221.02C498,-221.02 498,-242.53 498,-242.53"/>
<polygon fill="black" stroke="black" points="494.5,-242.53 498,-252.53 501.5,-242.53 494.5,-242.53"/>
</g>
<!-- SvgIconComponent -->
<g id="node24" class="node">
<title>SvgIconComponent</title>
<polygon fill="#ffffb3" stroke="black" points="2399.99,-220.8 2272.01,-220.8 2272.01,-184.8 2399.99,-184.8 2399.99,-220.8"/>
<text text-anchor="middle" x="2336" y="-198.6" font-family="Times,serif" font-size="14.00">SvgIconComponent</text>
</g>
<!-- SvgIconComponent&#45;&gt;SvgIconsModule -->
<g id="edge25" class="edge">
<title>SvgIconComponent&#45;&gt;SvgIconsModule</title>
<path fill="none" stroke="black" d="M2336,-184.74C2336,-180.31 2336,-176.8 2336,-176.8 2336,-176.8 1927.17,-176.8 1927.17,-176.8 1927.17,-176.8 1927.17,-162.86 1927.17,-162.86"/>
<polygon fill="black" stroke="black" points="1930.67,-162.86 1927.17,-152.86 1923.67,-162.86 1930.67,-162.86"/>
</g>
<!-- AutocompleteComponent -->
<g id="node26" class="node">
<title>AutocompleteComponent</title>
<polygon fill="#ffffb3" stroke="black" points="4000.15,-220.8 3839.85,-220.8 3839.85,-184.8 4000.15,-184.8 4000.15,-220.8"/>
<text text-anchor="middle" x="3920" y="-198.6" font-family="Times,serif" font-size="14.00">AutocompleteComponent</text>
</g>
<!-- AutocompleteComponent&#45;&gt;UtilsModule -->
<g id="edge27" class="edge">
<title>AutocompleteComponent&#45;&gt;UtilsModule</title>
<path fill="none" stroke="black" d="M3920,-184.51C3920,-162.59 3920,-128.8 3920,-128.8 3920,-128.8 2086.41,-128.8 2086.41,-128.8"/>
<polygon fill="black" stroke="black" points="2086.41,-125.3 2076.41,-128.8 2086.41,-132.3 2086.41,-125.3"/>
</g>
<!-- ModalComponent -->
<g id="node27" class="node">
<title>ModalComponent</title>
<polygon fill="#ffffb3" stroke="black" points="3821.88,-220.8 3704.12,-220.8 3704.12,-184.8 3821.88,-184.8 3821.88,-220.8"/>
<text text-anchor="middle" x="3763" y="-198.6" font-family="Times,serif" font-size="14.00">ModalComponent</text>
</g>
<!-- ModalComponent&#45;&gt;UtilsModule -->
<g id="edge28" class="edge">
<title>ModalComponent&#45;&gt;UtilsModule</title>
<path fill="none" stroke="black" d="M3763,-184.63C3763,-163.3 3763,-130.8 3763,-130.8 3763,-130.8 2086.63,-130.8 2086.63,-130.8"/>
<polygon fill="black" stroke="black" points="2086.63,-127.3 2076.63,-130.8 2086.63,-134.3 2086.63,-127.3"/>
</g>
<!-- NgModelChangeDebouncedDirective -->
<g id="node28" class="node">
<title>NgModelChangeDebouncedDirective</title>
<polygon fill="#ffffb3" stroke="black" points="3686.26,-220.8 3457.74,-220.8 3457.74,-184.8 3686.26,-184.8 3686.26,-220.8"/>
<text text-anchor="middle" x="3572" y="-198.6" font-family="Times,serif" font-size="14.00">NgModelChangeDebouncedDirective</text>
</g>
<!-- NgModelChangeDebouncedDirective&#45;&gt;UtilsModule -->
<g id="edge29" class="edge">
<title>NgModelChangeDebouncedDirective&#45;&gt;UtilsModule</title>
<path fill="none" stroke="black" d="M3572,-184.67C3572,-164.23 3572,-133.8 3572,-133.8 3572,-133.8 2086.58,-133.8 2086.58,-133.8"/>
<polygon fill="black" stroke="black" points="2086.58,-130.3 2076.58,-133.8 2086.58,-137.3 2086.58,-130.3"/>
</g>
<!-- TemplateNameDirective -->
<g id="node29" class="node">
<title>TemplateNameDirective</title>
<polygon fill="#ffffb3" stroke="black" points="4430.38,-220.8 4275.62,-220.8 4275.62,-184.8 4430.38,-184.8 4430.38,-220.8"/>
<text text-anchor="middle" x="4353" y="-198.6" font-family="Times,serif" font-size="14.00">TemplateNameDirective</text>
</g>
<!-- TemplateNameDirective&#45;&gt;UtilsModule -->
<g id="edge30" class="edge">
<title>TemplateNameDirective&#45;&gt;UtilsModule</title>
<path fill="none" stroke="black" d="M4353,-184.79C4353,-160.38 4353,-119.8 4353,-119.8 4353,-119.8 2086.51,-119.8 2086.51,-119.8"/>
<polygon fill="black" stroke="black" points="2086.51,-116.3 2076.51,-119.8 2086.51,-123.3 2086.51,-116.3"/>
</g>
<!-- ToastComponent -->
<g id="node30" class="node">
<title>ToastComponent</title>
<polygon fill="#ffffb3" stroke="black" points="4258.44,-220.8 4145.56,-220.8 4145.56,-184.8 4258.44,-184.8 4258.44,-220.8"/>
<text text-anchor="middle" x="4202" y="-198.6" font-family="Times,serif" font-size="14.00">ToastComponent</text>
</g>
<!-- ToastComponent&#45;&gt;UtilsModule -->
<g id="edge31" class="edge">
<title>ToastComponent&#45;&gt;UtilsModule</title>
<path fill="none" stroke="black" d="M4202,-184.65C4202,-161.04 4202,-122.8 4202,-122.8 4202,-122.8 2086.33,-122.8 2086.33,-122.8"/>
<polygon fill="black" stroke="black" points="2086.33,-119.3 2076.33,-122.8 2086.33,-126.3 2086.33,-119.3"/>
</g>
<!-- TooltipDirective -->
<g id="node31" class="node">
<title>TooltipDirective</title>
<polygon fill="#ffffb3" stroke="black" points="4127.81,-220.8 4018.19,-220.8 4018.19,-184.8 4127.81,-184.8 4127.81,-220.8"/>
<text text-anchor="middle" x="4073" y="-198.6" font-family="Times,serif" font-size="14.00">TooltipDirective</text>
</g>
<!-- TooltipDirective&#45;&gt;UtilsModule -->
<g id="edge32" class="edge">
<title>TooltipDirective&#45;&gt;UtilsModule</title>
<path fill="none" stroke="black" d="M4073,-184.55C4073,-161.78 4073,-125.8 4073,-125.8 4073,-125.8 2086.55,-125.8 2086.55,-125.8"/>
<polygon fill="black" stroke="black" points="2086.55,-122.3 2076.55,-125.8 2086.55,-129.3 2086.55,-122.3"/>
</g>
</g>
</svg>
