<?xml version="1.0" encoding="UTF-8" standalone="no"?>
<!DOCTYPE svg PUBLIC "-//W3C//DTD SVG 1.1//EN"
 "http://www.w3.org/Graphics/SVG/1.1/DTD/svg11.dtd">
<!-- Generated by graphviz version 5.0.0 (20220707.1540)
 -->
<!-- Title: dependencies Pages: 1 -->
<svg width="162pt" height="247pt"
 viewBox="0.00 0.00 162.00 246.80" xmlns="http://www.w3.org/2000/svg" xmlns:xlink="http://www.w3.org/1999/xlink">
<g id="graph0" class="graph" transform="scale(1 1) rotate(0) translate(4 242.8)">
<title>dependencies</title>
<polygon fill="white" stroke="transparent" points="-4,4 -4,-242.8 158,-242.8 158,4 -4,4"/>
<text text-anchor="middle" x="77" y="-8.2" font-family="sans-serif" font-size="14.00">dependencies</text>
<g id="clust1" class="cluster">
<title>cluster_ConditionsModule</title>
<polygon fill="none" stroke="black" stroke-dasharray="1,5" points="8,-32.8 8,-230.8 146,-230.8 146,-32.8 8,-32.8"/>
</g>
<g id="clust2" class="cluster">
<title>cluster_ConditionsModule_declarations</title>
<polygon fill="none" stroke="black" points="21,-40.8 21,-92.8 133,-92.8 133,-40.8 21,-40.8"/>
</g>
<g id="clust5" class="cluster">
<title>cluster_ConditionsModule_exports</title>
<polygon fill="none" stroke="black" points="19,-170.8 19,-222.8 135,-222.8 135,-170.8 19,-170.8"/>
</g>
<!-- ConditionPipe -->
<g id="node1" class="node">
<title>ConditionPipe</title>
<polygon fill="#ffffb3" stroke="black" points="125.4,-84.8 28.6,-84.8 28.6,-48.8 125.4,-48.8 125.4,-84.8"/>
<text text-anchor="middle" x="77" y="-62.6" font-family="Times,serif" font-size="14.00">ConditionPipe</text>
</g>
<!-- ConditionsModule -->
<g id="node2" class="node">
<title>ConditionsModule</title>
<polygon fill="#8dd3c7" stroke="black" points="137.51,-149.8 134.51,-153.8 113.51,-153.8 110.51,-149.8 16.49,-149.8 16.49,-113.8 137.51,-113.8 137.51,-149.8"/>
<text text-anchor="middle" x="77" y="-127.6" font-family="Times,serif" font-size="14.00">ConditionsModule</text>
</g>
<!-- ConditionPipe&#45;&gt;ConditionsModule -->
<g id="edge1" class="edge">
<title>ConditionPipe&#45;&gt;ConditionsModule</title>
<path fill="none" stroke="black" d="M77,-84.91C77,-84.91 77,-103.79 77,-103.79"/>
<polygon fill="black" stroke="black" points="73.5,-103.79 77,-113.79 80.5,-103.79 73.5,-103.79"/>
</g>
<!-- ConditionPipe  -->
<g id="node3" class="node">
<title>ConditionPipe </title>
<polygon fill="#fb8072" stroke="black" points="127.4,-214.8 26.6,-214.8 26.6,-178.8 127.4,-178.8 127.4,-214.8"/>
<text text-anchor="middle" x="77" y="-192.6" font-family="Times,serif" font-size="14.00">ConditionPipe </text>
</g>
<!-- ConditionsModule&#45;&gt;ConditionPipe  -->
<g id="edge2" class="edge">
<title>ConditionsModule&#45;&gt;ConditionPipe </title>
<path fill="none" stroke="black" stroke-dasharray="5,2" d="M77,-149.91C77,-149.91 77,-168.79 77,-168.79"/>
<polygon fill="black" stroke="black" points="73.5,-168.79 77,-178.79 80.5,-168.79 73.5,-168.79"/>
</g>
</g>
</svg>
